<svg xmlns="http://www.w3.org/2000/svg" viewBox="0 0 1366 768"><defs><style>.cls-1{fill:#79cccc;}.cls-2{fill:#6bbfc1;}.cls-10,.cls-11,.cls-12,.cls-13,.cls-14,.cls-15,.cls-16,.cls-17,.cls-18,.cls-19,.cls-2,.cls-20,.cls-21,.cls-3,.cls-5,.cls-6,.cls-7,.cls-8,.cls-9{fill-rule:evenodd;}.cls-3{fill:#5bb7b9;}.cls-22,.cls-27,.cls-4,.cls-5{fill:#fff;}.cls-6{fill:#cdbfbd;}.cls-7{fill:#d42e2e;}.cls-8{fill:#979898;}.cls-9{fill:#d22e2f;}.cls-10{fill:#fafdff;}.cls-11{fill:#d33430;}.cls-12{fill:#f6f4f4;}.cls-13{fill:#d3d4d3;}.cls-14{fill:#c3c7ca;}.cls-15{fill:#8b8c8c;}.cls-16{fill:#949394;}.cls-17{fill:#858787;}.cls-18{fill:#858585;}.cls-19,.cls-23{fill:#4f2808;}.cls-20{fill:#250d08;}.cls-21{fill:#5aa9a8;}.cls-22{font-size:185.68px;}.cls-22,.cls-27{font-family:Roboto-Bold, Roboto;font-weight:700;}.cls-23{font-size:38.99px;font-family:Roboto-Regular, Roboto;}.cls-24{letter-spacing:-0.02em;}.cls-25{letter-spacing:-0.04em;}.cls-26{letter-spacing:-0.01em;}.cls-27{font-size:25.63px;}.cls-28{letter-spacing:-0.02em;}</style></defs><title>bg404</title><g id="BACKGROUND"><rect class="cls-1" width="1366" height="768"/></g><g id="OBJECTS"><path class="cls-2" d="M451.92,648.57s412.75-88.08,809.29,0v26.9c-91-40.33-256.07-66.93-343.45-48.25-111.09,23.75-171,16.61-289,11.93-85.24-3.38-148.33,11.52-176.81,20.06Z"/><path class="cls-3" d="M992.82,718.86q12,1.44,24,2.79c10.11,1.13,19.88,1.8,30,2.53a114.93,114.93,0,0,0,11.6-.09,37.46,37.46,0,0,0,7.32-1.33,25.77,25.77,0,0,0,6-2.62,20,20,0,0,0,7.59-8,21,21,0,0,0-.57-20.58,30.3,30.3,0,0,0-4.67-5.89c4.3-8.71-1.64-19.66-18.67-25.45l1.6-.13c1.79,1,4.92,1,7,.87a205.2,205.2,0,0,0,21.77-2.2c1.42-.26,42,13.25,59,12.3a97.18,97.18,0,0,0,10.07-1.24,31,31,0,0,0,6.18-1.7,23.58,23.58,0,0,0,4.82-2.49,14.37,14.37,0,0,0,5.46-6.49,12.61,12.61,0,0,0,.71-7.32,14.61,14.61,0,0,0-4.11-7.39,26.41,26.41,0,0,0-4.89-3.76c2.68-7.16-5.21-15-23.31-16.83-5.7-.31-32.31-18.42-58-19.49a14.71,14.71,0,0,0-3.29-4.46,26.6,26.6,0,0,0-4.9-3.5c2.68-6.67-5.21-13.94-23.3-15.65-16.66-.84-165.95-10.36-171,4.51a45.28,45.28,0,0,0-8.42,2.37c-4.42,1.88-7.05,3.86-9.24,7.05a10.2,10.2,0,0,0-1.69,6.11,11,11,0,0,0,1.81,5.42,18.72,18.72,0,0,0,2.45,3,22.77,22.77,0,0,0-6.75,3.54,12.49,12.49,0,0,0-3.53,4.2,8.47,8.47,0,0,0-.69,5.79,10.69,10.69,0,0,0,2.67,4.74,17.32,17.32,0,0,0,3.45,2.81,30.57,30.57,0,0,0,6.05,2.83c.49.16,1,.3,1.45.43-4.55,1-7.56,2.62-8.6,5a44,44,0,0,0-10,2.13,24.57,24.57,0,0,0-12.07,8.85,19.3,19.3,0,0,0-3.36,8.68,19.8,19.8,0,0,0,.75,8.22,27.27,27.27,0,0,0,2,4.75,25.45,25.45,0,0,0-8.43,4.11,18.5,18.5,0,0,0-5,5.6,15.93,15.93,0,0,0-2.15,8.36,17,17,0,0,0,1.86,7.35,21.44,21.44,0,0,0,3.22,4.66,30.88,30.88,0,0,0,6.12,5.11c7.31,4.27,13.61,5.35,22,6.64.14.06,1.49.21,1.75.24,8.12,1.06,16.21,1.69,24.36,2.35,20.6,1.68,41.26,1.85,61.85,2.77l11.76.55c1.8,1.63,5.33,2.13,7.68,2.29a194.65,194.65,0,0,0,25,.46,22.37,22.37,0,0,0,4.44-1.19,12.5,12.5,0,0,0,2.85-1.62Zm-48.11-86.64a15.7,15.7,0,0,0,1.11,2.33,19.71,19.71,0,0,0,2.45,3.2c-.79.3-1.5.6-2.17.91-10.63-1.66-21.11-3.13-30.93-4.23C925.05,633.85,934.88,633,944.71,632.22Z"/><path class="cls-4" d="M1129.29,406.68c-3.42-.25-3,2.56-3.54,4.52-1.77,6.54-3.06,13.23-5.88,19.44-1.28,2.82-3.16,5.37-2.21,8.77.33,1.16-.55,2.1-1.38,2.94a38.77,38.77,0,0,1-7.85,6.4c-4.75,2.8-9.79,5.08-14.37,8.2s-4.77,3.31-1,7.48c4.61,5.09,4.25,9.86-1.07,14.22a20.09,20.09,0,0,1-7.49,3.85,48.35,48.35,0,0,1-21.83.55c-12.19-2.3-24.3-4.82-36.75-5.86-10.52-.89-19.7-6-27.18-13.57-3.32-3.37-2.55-6.16,1.71-7.61,2.28-.78,5.58-1.5,5.1-4.13s-3.9-2.64-6.47-2.68a1.7,1.7,0,0,0-.78.29.78.78,0,0,0-.17,1.15h0c.36.48.91.41,1.41.48-.51,0-1-.07-1.4.42h0c-.7.75-1.86.07-2.56.83h0a1.05,1.05,0,0,1-.52.33,4.28,4.28,0,0,1-3.84,4.63c-6.32.61-12.4,4.14-18.55,5.63-2.51.61-5,1-7.56,1.55,1.61,7.22-4.43,18.11-5.56,23.8a3.32,3.32,0,0,1-2.63,2.81,2.44,2.44,0,0,1-.35,1.37.68.68,0,0,1-.06.65,2.88,2.88,0,0,0-.62,2.38,5.26,5.26,0,0,0,.42,1.21,11.31,11.31,0,0,0,.57,1.16,7.39,7.39,0,0,1,.57,5.34c-3.18,13.19-3.77,26.74-5.44,40.14-.8,6.48-1.88,12.77-5.52,18.44a33.08,33.08,0,0,0-4,8.35,19.43,19.43,0,0,1,0,4.38,3.74,3.74,0,0,1,3.89,3.88c-.09,6.93-1.35,14.18-4.81,20.26a6.71,6.71,0,0,0,1.38.82c2.37-6,2.92-12.45,4.35-18.92a25.36,25.36,0,0,1,4.56,13.48c0,1.26.3,2.35,1.47,2.79,3.84,1.44,6.68,4.64,10.8,5.71,3.39.87,6.61,2.54,10,3.61,10.08,3.23,15,10.21,16.33,20.49,3,23.14,4.4,46.42,6.6,69.62.41,4.28,1.75,8.69-.79,12.82-.07.86.55,1.19,1.16,1.52h0a7.88,7.88,0,0,0,.84.89,4.83,4.83,0,0,0,.84.85h.85a2.64,2.64,0,0,0,.79-.9l0,0,0,0h0a3.16,3.16,0,0,0,.87-.84l0,0,0,0h0a5.63,5.63,0,0,0,.87-.82h0a10.66,10.66,0,0,1,.88-.76l.06,0c.35-.56,1.17-.38,1.53-.93l0,0,0,0a4.2,4.2,0,0,0,.94-.79h0a26.2,26.2,0,0,0,5.93-6h0a1.78,1.78,0,0,0,.18-2c-4.54-3.35-5.5-8.15-5.87-13.42-.51-7.32-1.59-14.61-2.09-21.93-.42-6.33-2.79-12.87,1-19a2.34,2.34,0,0,0-.44-2.78c-4.59-5.33-3.7-12-4.17-18.2-.42-5.45,1.15-6.42,6.78-6.53,11.89-.22,23.68,1.75,35.55,1.67,7.49,0,14.29,1.36,20.25,6.07,2.36,1.87,4.66,1.6,6.91-.32a25.45,25.45,0,0,0,7.13-10.4,238.77,238.77,0,0,0,11.72-40.28c2.26-11.65,3.05-23.58,6.36-35,.7-2.42-.23-4.12-1.83-5.68a23.58,23.58,0,0,1-5.27-7.59c-5.3-12.15,1.53-25.72,11.63-33a6,6,0,0,1,5.29-.64c2.45.66,4,2.52,5.83,4.1s3.22,4.44,6.34,4.5c.11-.31.21-.62.31-.93a2.33,2.33,0,0,1,.68-.75l0,0a4.71,4.71,0,0,1,.8-.81l0,0a4.71,4.71,0,0,1,.8-.81l0,0a5.17,5.17,0,0,1,.81-.81l0,0c.25-.3.51-.59.77-.88,1.14-1.9-.22-4.15.83-6.06,0-.81.07-1.62.11-2.44,1-2.51-.3-5.25.74-7.76l.09-1.57a11,11,0,0,0,0-5.94l0-.07c-.64-.53-.47-1.08-.07-1.65h0l0,0s0,0,0,0a3.74,3.74,0,0,0,.84-.89l0,0,.06,0h0c.06,0,.12-.09.19-.23s0-.35-.19-.54l0,0c-.26-.29-.51-.6-.75-.91l-.06-.07a2.64,2.64,0,0,1-.78-.78l-.07-.07a2.8,2.8,0,0,1-.79-.78l-.06-.07a2.93,2.93,0,0,1-.79-.78l-.06-.07a2.33,2.33,0,0,1-.38-.31c-5.89-.07-11.75-.63-17.64-.68a3.93,3.93,0,0,1-3.8-4.89,1.45,1.45,0,0,1-.29-.11c-.69-.52-.56-1.08-.06-1.64v0c.49-.43,1.28-.3,1.69-.89h0l0,0,0,0c.53-.39,1.32-.25,1.72-.88l0,.05a8.23,8.23,0,0,0,.93-.72.61.61,0,0,1,.58-.17c.63-.3,1.43-.21,1.92-.84h0l0,0,0,0c.53-.36,1.29-.26,1.71-.83h0l0,0,0,0c.51-.39,1.28-.28,1.71-.83h0l0,0h0c.51-.42,1.27-.3,1.73-.82h0c.69-.77,1.88-.07,2.55-.87h0c4.25-1,6.81-3.89,8.47-7.74a.94.94,0,0,1,.09-.73c.82-1-.09-2.45.78-3.48a1,1,0,0,1,.1-.78c.64-.73,0-1.85.76-2.56v0c1-1-.07-2.44.87-3.41v0c.74-.79.19-1.94.79-2.77a.7.7,0,0,1,.1-.64c.71-.75.1-1.9.78-2.66a1,1,0,0,1,.12-.75c.64-.74,0-1.85.76-2.56v0c.94-1,0-2.47.84-3.5a1,1,0,0,1,.1-.76c.62-.8.1-1.9.72-2.69a.84.84,0,0,1,.08-.69c.85-1.06,0-2.49.78-3.56a.8.8,0,0,1,.07-.69C1129.72,409.42,1129.33,408,1129.29,406.68Z"/><path class="cls-4" d="M1180,633.34a.69.69,0,0,1-.09-.65c-.62-.81,0-2-.82-2.74l0,0c-.47-.48-.32-1.23-.77-1.72a.56.56,0,0,1-.14-.56,3,3,0,0,0-.7-1.17l0,0c-.59-.38-.38-1.23-1-1.61l0,0c-.22-.34-.54-.6-.79-.92l0,0c-.53-.38-.37-1.2-.93-1.56h0l-.08-.06a.18.18,0,0,1,.07,0,2.23,2.23,0,0,0-.85-.9l0,0,0,0h0a2.69,2.69,0,0,0-.84-.84l0,0,0,0,0,0a3,3,0,0,0-.83-.87v0l0,0,0,0a5.38,5.38,0,0,0-.84-.88v0a6.21,6.21,0,0,0-.85-.85v0a7.58,7.58,0,0,0-.85-.85l0,0a7.15,7.15,0,0,0-.87-.87v0a7.85,7.85,0,0,0-.86-.87l0,0a5.06,5.06,0,0,0-.89-.84l0,0,0,0h0a2.77,2.77,0,0,0-.85-.82l0,0-.06,0,0,0a1.73,1.73,0,0,0-1.12-.83.6.6,0,0,1-.56-.2,5.66,5.66,0,0,0-1-.69,1,1,0,0,1-.71-.21l-1-.64a.89.89,0,0,1-.69-.14c-.55-.4-1.28-.32-1.84-.69l-1.57-.18c-1.65-.68-3.5.08-5.12-.77-.83.75-1.71,1.45-2.48,2.26s-1.7,1.31-2,2.77c2-.76,3.74-1.37,5.42-2a4.33,4.33,0,0,1,2.48-.3,1.72,1.72,0,0,1,1.34.94,1.13,1.13,0,0,1-.48,1.43,132.81,132.81,0,0,0-10.17,8.95,21.65,21.65,0,0,0-4.51,7.1,10.16,10.16,0,0,0,2.61,11.21,19.8,19.8,0,0,0,17.34,4.57,4.79,4.79,0,0,1,3.3.09c1.18.6,2.17.15,3.21-.36a8.35,8.35,0,0,0,2.92-2.41c1.27-1.59,3-2,4.85-2.18.74-.07.8.61.93,1.14.36.22.61.12.77-.26a.88.88,0,0,1,.17-.65c.39-.5.25-1.22.74-1.68h0c.77-.69.08-1.87.86-2.56h0A4.89,4.89,0,0,0,1180,633.34Z"/><path class="cls-4" d="M1140,350.53a1.76,1.76,0,0,0-.86-.88,0,0,0,0,1,0,0l0,0,0,0a3.07,3.07,0,0,0-.78-.94h0a7.91,7.91,0,0,1-.75-.88l-.07-.07a2.89,2.89,0,0,1-.78-.78l-.07-.07a2.89,2.89,0,0,1-.78-.78l-.07-.07a3.19,3.19,0,0,1-.6-.56,14.26,14.26,0,0,1-2-.34c-9.52-2.38-20-2.11-29.76-3.71-10-1.65-19.81-3.24-29.59-6.1s-18.94-3.71-29-4.94c-4.09-.5-8.63-2.38-12.7-2.5a36.5,36.5,0,0,1-7.53-.93,14,14,0,0,1-2.79,1.1c-5,1.4-9.42,4.24-14.31,6-4.36,1.57-8.79,2.89-13.16,4.39-7.19,2.46-13.84,6.2-21,8.68,1.33,5.66.72,11.55-.27,17.46-1.31,7.86-2.65,15.7-3.93,23.56-2.92,17.91-2.91,36.53-7.54,54.11a5.74,5.74,0,0,1,.75.73l0,0a9.74,9.74,0,0,0,.93.77l0-.05c.74.87,1.94.26,2.76.85l.32,0,.29.12c.79.74,1.94.18,2.77.78l.32,0,.31.12c1.29,1,3-.16,4.28.82h0c1.92,1.15,4.17-.18,6.11.82l.33-.07.32.11c1.07.75,2.22.45,3.36.26.1-2.68-2.26-2.51-3.78-3.07-5.15-1.91-10.48-3.36-15.36-6.05.27-.38.51-.47.83-.41,21.26,4.14,42.61,7.65,64.14,10.09,14.77,1.68,29.3,5,44,7.26,2.12.32,4.24.71,6.19-.54,6.78-4.36,13.91-8.24,19.65-14,15.91-16.09,25.28-35.61,29.91-57.55,1.68-7.92,2.62-16,4.41-24.45,1.5,3.12.42,6,1.82,8.47a.69.69,0,0,0,1.14.05,1,1,0,0,1,.09-.72c.8-1.07,0-2.48.75-3.55a.84.84,0,0,1,.07-.69c1-1.32-.15-3,.81-4.33a1.05,1.05,0,0,1,.09-.78c.79-1.05-.08-2.46.75-3.5a1,1,0,0,1,.1-.75c.42-.86.66-1.71-.2-2.47Z"/><path class="cls-4" d="M909.87,574.86c-.71-1.19-1.78-2.19-1.81-3.74a30.86,30.86,0,0,1,.27-6.81c-5.37,2.17-11.18,3.16-16.3,6-5.29,3-3.34,10.26-10,12.41-4.8,1.55-10.22-2.9-14.09-5-6.91-3.7-13.16-3.41-19.75-.9,0,.13,0,.26.05.41,0,1.1.76,1.34,1.61,1.61,6,1.93,12,3.94,18.12,5.8,1.72.52,2.67,1.34,2.82,3.18a4.28,4.28,0,0,0,.89,2.34c1.94,2.19,2.09,5,2.26,7.56.27,4.21,1.39,8.36,1.05,12.62a3.3,3.3,0,0,0,.09,1.26c.9,2.75.68,5.59.75,8.4a9.3,9.3,0,0,0,.11,2.54c.94,3,.62,6.16.65,9.25,0,4.24,0,8.49,0,12.72a18.65,18.65,0,0,0,.31,3.79,61,61,0,0,1,1.38,10c.26,6.75-.52,13.55.79,20.27.39,2-.88,3.5-3,3.94a12.29,12.29,0,0,1-2.11.09c-.09,0-.14.12-.16.35s.14.31.47.35a.74.74,0,0,1,.61.16,1.35,1.35,0,0,0,1.65.08l.9-.07.88.76,0,0a4.27,4.27,0,0,0,.88.87l0,0a3,3,0,0,0,.92.86l0-.07a1,1,0,0,0,1.62,0l0,.05a9.73,9.73,0,0,0,.92-.78l0,0c.4-.55,1.25-.36,1.63-.95l0,0c.35-.21.6-.53.93-.76l0,0c.39-.56,1.24-.35,1.6-1l0,.05a6.44,6.44,0,0,0,.93-.8h0c.4-.52,1.21-.35,1.58-.92h0l0-.06,0,.06a2.5,2.5,0,0,0,.89-.82h0l0,0,0,0c.34-.22.59-.53.92-.75l0,0a39.93,39.93,0,0,0,5.93-5.84l.09-.11a.65.65,0,0,0,0-.73c-2-.2-3-1.93-4.36-3.12a5.55,5.55,0,0,1-1.83-3.63c-.66-4.43-1.61-8.81-2.32-13.23-.45-2.76-.72-5.55-1-8.34a28.74,28.74,0,0,0-.55-4.59,20.14,20.14,0,0,1-.25-6.71c.22-2.83,2.05-4.78,4.07-6.56,1.32-9.68-1-19.26-.76-29,1.18.3,2,1.73,3.46,1a15.81,15.81,0,0,0-.06-1.69c-.36-2.29.76-3.62,2.62-4.8a84.42,84.42,0,0,1,9-4.68,12.84,12.84,0,0,0,6.78-7.7,2.26,2.26,0,0,0-.29-2.37A21.27,21.27,0,0,1,909.87,574.86Z"/><path class="cls-5" d="M1121.31,495.65v0h0Z"/><polygon class="cls-5" points="1004.83 708.05 1004.84 708.05 1004.84 708.05 1004.83 708.05"/><path class="cls-6" d="M1011.87,699.73c-3.39-1.24-5.73-3.22-6.17-7.15-.65-5.74-1.47-11.45-1.67-17.23-1.34-3.8-.4-7.87-1.45-11.74-.5-1.86.23-4.1-.4-5.88-1-2.78.45-5.58-.6-8.28-.32-.81.27-1.66.74-2.36.7-1.05,1.51-2,2.35-3.16a8.58,8.58,0,0,0-1.35-1.6,8,8,0,0,1-3.26-6.61c-.19-4.23-1.32-8.38-1.08-12.64a12,12,0,0,1,.57-3.74c.81-2.11,2.54-3.53,4.72-3.26,4.38.53,8.76.09,13.14.29a15,15,0,0,1,5,.55,3,3,0,0,0,1.25.19c7.08-.4,14.06,1.48,21.14.92,5.42-.43,10.31,1.22,15,3.66a18,18,0,0,1,3.77,2.71c2,1.83,3,1.74,5.13-.06a24.52,24.52,0,0,0,6.64-9.19,200.66,200.66,0,0,0,6.95-20.44c1.6-5.42,3.08-10.86,4.23-16.38,1-4.55,1.68-9.14,2.47-13.71,1.36-7.9,2.06-15.92,4.21-23.68.12-.41,0-.92.26-1.24,1.69-2.46.45-4-1.42-5.67-5.73-5.08-7.5-11.78-7.18-19.11a23.27,23.27,0,0,1,1.54-6.57c1.54-4.43,3.53-8.63,7.21-11.8,1.29-1.1,2.39-2.41,3.62-3.58a8.25,8.25,0,0,1,11.47-.1c2.19,2,4.22,4.19,6.33,6.28.6.58,1.25,1.12,1.87,1.68l.29-.08a1.52,1.52,0,0,0,.72.76l.1.1a2.3,2.3,0,0,0,.74.81l0,.06c.22.33.53.59.76.91l0,0a2.24,2.24,0,0,1,.82,1l-.08-.08c.68.31.46,1.2,1,1.59v0c.25.34.63.58.72,1l-.09-.09c.73.37.58,1.19.93,1.76l-.05-.08c.72.47.62,1.32.89,2a.38.38,0,0,0,.2.52c.42.49.25,1.24.77,1.68h0c.47.5.38,1.25.77,1.79l0-.06c.9.71.31,1.86.8,2.69l0-.07c.77.29.57,1.18,1,1.67l0-.05c.6.53.54,1.33.82,2a.4.4,0,0,0,.17.55c.44.51.32,1.24.73,1.76l0-.05c.63.52.56,1.33.84,2a.39.39,0,0,0,.17.54c.44.51.3,1.25.75,1.75l0,0c.57.52.49,1.31.81,1.94a.52.52,0,0,0,.17.61c.42.51.3,1.24.73,1.75l0-.05c.87.63.1,1.87.93,2.51v0c.48.55.42,1.32.75,1.93a.53.53,0,0,0,.18.64c.4.51.27,1.24.73,1.72v0a5.21,5.21,0,0,1,.77,2,.33.33,0,0,0,.13.49,6.45,6.45,0,0,1,.72,2,.35.35,0,0,0,.16.51c.64.8.17,1.87.64,2.71l0-.08c.8.37.62,1.26,1,1.86a.51.51,0,0,0,.17.62c.41.57.36,1.31.69,1.92a.52.52,0,0,0,.18.63c.39.51.27,1.24.73,1.72l0,0c.54.56.51,1.35.78,2a.4.4,0,0,0,.17.54c.44.51.32,1.25.74,1.76l0-.05c.59.55.55,1.35.81,2a.36.36,0,0,0,.15.52c.47.49.32,1.25.77,1.74l0,0c.57.54.53,1.34.8,2a.4.4,0,0,0,.17.54c.44.51.32,1.25.73,1.77l0-.06c1,1,.09,2.45.82,3.51l0-.06a1.39,1.39,0,0,1,.91,1.19.29.29,0,0,0,.15.44c.46.5.33,1.25.76,1.76l0-.05c.87.67.16,1.88.89,2.59l0,0c.57.55.54,1.35.8,2a.33.33,0,0,0,.12.5c.5.55.42,1.33.75,1.94a.52.52,0,0,0,.17.63c.41.51.3,1.24.71,1.76l0-.06c.88.67.18,1.87.89,2.6l0,0c.59.55.56,1.35.81,2a.33.33,0,0,0,.13.49,6.24,6.24,0,0,1,.72,2.06.32.32,0,0,0,.14.49c.87,1-.1,2.43.81,3.41h0c.51.46.37,1.24.85,1.72v0c.78.71.12,1.88.84,2.6l0,0c.81.75.22,1.94.83,2.75,0,1.22,0,2.44,0,3.66-.25.69-.21,1.5-.82,2l0,0c-.43.5-.26,1.36-1,1.7l.09-.09a2.09,2.09,0,0,1-.79,1h0a8,8,0,0,0-.72.91l0,.06c-.36.5-.48,1.11-.85,1.59a7.28,7.28,0,0,1-2,1.86c2.53-.36,5.51-2.42,7,.54s-2.15,4.09-3.84,5.63c-3.66,3.31-7.63,6.3-9.85,10.89-2.66,5.48-1.48,9.85,3.52,13.2a20.49,20.49,0,0,0,13.3,3.2c4.33-.29,8.59-.31,12-3.94.94-1,3.74-2.87,4.94.65a1.84,1.84,0,0,1-.37,1.13c0,.28,0,.57,0,.85a1.1,1.1,0,0,1-.06,1.68l0,0c-.47.47-.26,1.37-1,1.63l.12-.11c-.25.78-1.16.56-1.6,1.05h0a1.67,1.67,0,0,1-1,.74l.08-.1c-.28.8-1.16.6-1.68,1l0,0a2,2,0,0,1-1.1.68,10.38,10.38,0,0,0-3.67,2c-10.26,9-29.46,4-35.63-8.69-3.1-6.36-1-12.73,1.33-18.92.66-1.72,2.33-3.58-.15-5.25a5.77,5.77,0,0,1-1.39-1.31l0,.07a2.62,2.62,0,0,1-.94-.84l0,0a3.59,3.59,0,0,1-.87-.87l0,0a3.59,3.59,0,0,1-.87-.87l0,0a4.48,4.48,0,0,1-.87-.87h0a3.74,3.74,0,0,1-.87-.86l0,0a4,4,0,0,1-.87-.88l0,0a4,4,0,0,1-.87-.88l0,0a2.48,2.48,0,0,1-.83-1l.08.09c-.7-.5-.63-1.34-.88-2a.33.33,0,0,0-.18-.48c-.44-.48-.28-1.24-.77-1.7h0c-.51-.49-.41-1.25-.8-1.78l0,.06c-.64-.54-.59-1.35-.84-2v-.14c.12-.42.32-.85-.07-1.24l0,0a2,2,0,0,1-.82-1l.09.09c-.75-.43-.61-1.28-.92-1.92a.47.47,0,0,0-.19-.58c-.41-.51-.31-1.24-.71-1.76l0,.06c-.62-.54-.58-1.36-.83-2a.32.32,0,0,0-.12-.49c-.52-.52-.39-1.31-.78-1.88a.6.6,0,0,0-.18-.69c-.38-.51-.25-1.23-.71-1.71v0c-.54-.54-.48-1.32-.79-2a.48.48,0,0,0-.2-.6c-.38-.51-.26-1.24-.72-1.72l0,0c-.56-.52-.48-1.31-.8-1.94a.51.51,0,0,0-.19-.61c-.4-.49-.24-1.24-.75-1.68h0c-.49-.49-.39-1.25-.79-1.78l0,0c-.23-.16-.31-.34-.25-.51s.13-.28.2-.28l0,0c.2-.2.25-.38.16-.55s-.17-.24-.24-.24l-.07-.09a3.17,3.17,0,0,0-.74-.85l0,0c-.26-.32-.62-.57-.74-1l.08.08c-.7-.39-.55-1.2-.91-1.76l0,.07c-.68-.4-.55-1.21-.9-1.78l0,0c-1.7-.46-1.32.85-1.41,1.7-.21,2,.37,4.08-.35,6.08a3.58,3.58,0,0,0-.17,2.24c-.75,1.44.1,3.13-.69,4.56l-.15,1.47c-.82,1.4.16,3.1-.75,4.49a.56.56,0,0,0-.08.67c-.76,1.08,0,2.48-.72,3.57a.64.64,0,0,0-.11.73c-.9,1.34.11,3-.74,4.36,0,.49-.1,1-.14,1.47-.89,1.69.2,3.66-.75,5.34a.62.62,0,0,0-.07.71c-.94,1.64.14,3.57-.72,5.23,0,.52-.09,1-.13,1.57-1,1.93.25,4.16-.78,6.09a.53.53,0,0,0-.09.67c-.85,1,.24,2.59-.95,3.53l.08-.11a1.57,1.57,0,0,1-.91.94l.07-.08a1.59,1.59,0,0,1-.91.92l.06-.07a1.59,1.59,0,0,1-.91.92l.06-.06a1.63,1.63,0,0,1-.91.91l.06-.06a1.59,1.59,0,0,1-.92.91l.07-.07a1.59,1.59,0,0,1-.91.92l.06-.07a1.3,1.3,0,0,1-1,.86l.09-.09c-.3.79-1.16.6-1.7,1l.05,0c-.39.67-1.2.52-1.74.89l0,0c-.38.65-1.21.48-1.69.93h0c-.4.56-1.22.37-1.63.91l-.05,0c-.32.26-.55.64-1,.7l.08-.09c-.31.77-1.17.59-1.7,1l0,0c-.37.66-1.21.47-1.67,1h0c-.41.53-1.22.34-1.62.9l-.06,0c-.33.24-.56.62-1,.69l.07-.08c-.32.74-1.18.55-1.68,1l0,0c-.39.6-1.22.43-1.67.92h0a14,14,0,0,1-2.65,1.6l0,0c-.36.67-1.2.49-1.68.94h0a1.56,1.56,0,0,1-1,.76l.09-.09c-.3.79-1.17.6-1.7,1l0,0c-.38.65-1.2.49-1.7.93l0,0c-3.86,1.3-8-.31-11.81.94l0,0c-.58.39-.38,1.21-.91,1.61h0c-.48.46-.3,1.31-1,1.68l.07-.08c-.13.41-.49.65-.72,1l0,.06c-.58.38-.37,1.21-.92,1.61l0,0c-.49.46-.28,1.35-1,1.64l.1-.09a1.87,1.87,0,0,1-.77,1h0c-.49.45-.28,1.35-1.05,1.62l.1-.09a1.52,1.52,0,0,1-.82,1l.05-.05a5.41,5.41,0,0,1-.78.94l0,0c-.73.74-1,1.83-1.87,2.44l.08-.08a1.78,1.78,0,0,1-.86,1l0-.05a2.74,2.74,0,0,1-.85.91l0,0a3.59,3.59,0,0,1-.87.87l0,0a4,4,0,0,1-.87.88l0,0a3.78,3.78,0,0,1-.87.87h0a3.74,3.74,0,0,1-.87.86l0,0a3.59,3.59,0,0,1-.87.87l0,0a3,3,0,0,1-.9.86l0,0a3.24,3.24,0,0,1-.86.91l0,0a77.64,77.64,0,0,1-10.09,10.26l-.06.06a2.89,2.89,0,0,0-.78.78l-.07.07a2.89,2.89,0,0,0-.78.78l-.07.07a5.57,5.57,0,0,0-.85.76l0,0a11.4,11.4,0,0,1-.89.81l0,0a4.48,4.48,0,0,1-.87.87l0,0a3.35,3.35,0,0,1-.9.86l0,0a2.06,2.06,0,0,1-1,.85l.06-.06a1.69,1.69,0,0,1-.9.92l.06-.06a2.38,2.38,0,0,1-.84.94l0,0a3.87,3.87,0,0,1-.87.89l0,0a4.48,4.48,0,0,1-.87.87l0,0a11.22,11.22,0,0,1-.81.89l0,0a5.07,5.07,0,0,0-.75.85l-.06.07c-.79.67-1,1.76-1.86,2.4l.07-.06a2.48,2.48,0,0,1-.85.94l0,0a3.59,3.59,0,0,1-.87.87l0,0a3.59,3.59,0,0,1-.87.87h0a3.74,3.74,0,0,1-.87.86l0,0a3.59,3.59,0,0,1-.87.87v0C1012.39,699.93,1012.18,700,1011.87,699.73Z"/><path class="cls-6" d="M942.75,599.5a51.52,51.52,0,0,1,1.4-9.14c.69-3.38,2.05-6.75,1.5-10.37-.11-.7.58-1.51,1.07-2.66,1.59,2.23,3.36,3.89,3.74,6.35a8.75,8.75,0,0,0,1.58,3.88c1.61,2.25,2.27,4.52.56,7-.13.19,0,.54,0,.95,1,.39,2,.84,3.12,1.15,1.53.44,3,.89,3.56,2.63.25.77,1.1.72,1.76.94A181.33,181.33,0,0,1,980,607.61c2.63,1.26,4.61,3.26,6.75,5.06a6.35,6.35,0,0,1,2.11,3.59c.34,1.65,1,3.24,1.46,4.86a67.32,67.32,0,0,1,2,11.21c.53,4.33.65,8.68,1.39,13,.64,3.74.77,7.57,1.08,11.36a14,14,0,0,0,.53,4.18,3.18,3.18,0,0,1,.24,1.24c-.29,4.83.84,9.56.89,14.36A114.07,114.07,0,0,0,997.94,692a26.43,26.43,0,0,1,.17,3,30.6,30.6,0,0,0,.63,6.3c.78,3.15.36,6.17-2.35,8.45a1.68,1.68,0,0,1-2.47,0l0,0c-.53-.39-1.28-.27-1.77-.75l-.21-.19-.29.05c-.68-.24-1.46-.23-2-.78h0c-.7-.74-1.9,0-2.55-.89l0,0c-.51-.43-1.31-.29-1.74-.87l.05.06c-.37-2.46-1.78-3.16-4.21-3-2.27.11-4.65.6-6.89-.42l0,0c-.74-.68-1.88-.05-2.61-.78l-.25-.18-.29.06c-.87-.53-2,0-2.83-.8h0c-1-.87-2.46.13-3.42-.85h0c-1-.87-2.47.11-3.45-.84l-.23-.17-.26.09c-1.18-.65-2.64.11-3.76-.76l-.22-.17-.26.09a2.38,2.38,0,0,1-1.21-.69l-.06-.05a3.94,3.94,0,0,0-.8-.78l-.07-.07a3.61,3.61,0,0,0-.78-.78l-.07-.07a3.61,3.61,0,0,0-.78-.78l-.07-.06a3.29,3.29,0,0,0-.79-.79l-.06-.06a3.75,3.75,0,0,0-.78-.81l0-.05c-1-2.24.27-4.72-.75-6.95l-.09-1.56c-1-2.52.29-5.27-.76-7.78,0-.52,0-1-.08-1.56-1.06-2.52.29-5.27-.77-7.79a3.93,3.93,0,0,0-.13-2.42c-.88-2.31.21-4.81-.68-7.11a3.69,3.69,0,0,0-.13-2.23c-1-2.52.29-5.26-.76-7.78,0-.52-.05-1-.07-1.56-1.51-1.46,1.31-4.36-1.78-5.29l0,0c-1,.84-2.37,1.05-3.46,1.75l.06,0c-.34.71-1.2.52-1.68,1v0a1.6,1.6,0,0,1-1,.78l.08-.09c-.3.78-1.16.6-1.7,1l0,0c-.34.66-1.2.46-1.63,1h0c-.31.29-.55.66-1,.73l.08-.08c-.31.75-1.18.56-1.68,1l0,0c-.81.65-2.07.66-2.58,1.76l0,0a3.07,3.07,0,0,1-.88.88l0,0a1.76,1.76,0,0,1-1,.79l.07-.09c-.26.75-1.17.52-1.58,1l0,0a3.73,3.73,0,0,1-1,.78l.06-.06c-.33.63-1.21.4-1.56,1l-.09.06-.93.72,0,0a16.51,16.51,0,0,1-2.57,1.73h0a1.67,1.67,0,0,1-1,.78l.08-.09c-.28.76-1.17.55-1.63,1h0a2,2,0,0,1-1,.79l.08-.09c-.3.72-1.18.51-1.61,1h0c-.3.29-.54.66-1,.75l.08-.09c-.3.74-1.18.53-1.64,1h0a1.69,1.69,0,0,1-1,.74l.1-.08c-.49,1.13-1.84.24-2.45,1h0a5.31,5.31,0,0,1-.88.83l0,0a2.31,2.31,0,0,1-1,.83l.07-.07c-.35.67-1.2.48-1.65,1h0a2,2,0,0,1-1,.75l.08-.08c-.32.74-1.18.56-1.7,1l0,0c-.36.63-1.2.43-1.62,1l0,0c-.32.27-.56.63-1,.74l.07-.07c-.3.69-1.19.47-1.58,1l-.05,0a4.35,4.35,0,0,1-.95.76l.06-.06c-.33.63-1.21.4-1.56,1l-.08,0a5.58,5.58,0,0,1-1.37.48c-3.82-.75-5.81-3.4-6.56-6.9a239.53,239.53,0,0,1-4.24-29.33c-.37-4.1.5-7.9,4-10.59,2.43-3.17,6.15-4.45,9.46-6.28,10.74-6,21.19-12.46,32.82-16.73C935.58,601.84,939.61,602,942.75,599.5Z"/><path class="cls-6" d="M984.6,447.13c-2.85-1.62-6.09-2.17-9.12-3.27a105.91,105.91,0,0,1-10.61-4.28,10,10,0,0,1-1.82-1.07,1.1,1.1,0,0,1-.35-1.5,1.52,1.52,0,0,1,1-.64,7.26,7.26,0,0,1,2.07.26c5.33,1.37,10.76,2.21,16.18,3.06,6,.94,11.91,2.15,17.88,3.14,4.44.73,8.92,1.24,13.37,1.94,5.15.8,10.35,1.17,15.52,1.78,6.14.72,12.22,2,18.33,3l17.07,2.86c4,.67,8.07,1.25,12.06,2.09a4.26,4.26,0,0,0,3.61-.5c5.66-4,12-7,17.1-11.72a77.4,77.4,0,0,0,11.73-12.79A109.39,109.39,0,0,0,1121,407.35c.83-2.1,2-4.07,2.83-6.16a97.48,97.48,0,0,0,5.38-20c1.17-6.52,2.36-13,3.34-19.57a30.12,30.12,0,0,1,1.38-4.86c.16-.49.55-1.11,1.24-.79a1.55,1.55,0,0,1,.6,1,53.67,53.67,0,0,1,1,10.51,3.49,3.49,0,0,1-.08,3.29.43.43,0,0,0-.08.62c-.91,2,.18,4.18-.7,6.16a3.76,3.76,0,0,0-.16,2.32c-.88,1.69.21,3.66-.75,5.34a.55.55,0,0,0-.08.67c-.77,1.08.05,2.5-.75,3.58a.53.53,0,0,0-.1.66c-.61.81-.1,1.92-.72,2.73a.57.57,0,0,0-.13.68c-.63.8-.07,1.94-.76,2.72a.42.42,0,0,0-.12.58c-.3.63-.26,1.39-.7,2a.46.46,0,0,0-.15.59c-.31.63-.25,1.39-.72,2a.35.35,0,0,0-.14.52c-.7,1.15.18,2.65-.85,3.72l0-.08c-.19.37-.26.82-.73,1-1.47,1.57-2.77,3.17-2.07,5.58a2.57,2.57,0,0,1-.38,1.59,35.34,35.34,0,0,0-2.5,8.08A40.32,40.32,0,0,1,1118.7,435a2.13,2.13,0,0,0-.27,2.35,5.61,5.61,0,0,1,.6,2c.12,1.57.16,3.17-1.85,3.72a2.51,2.51,0,0,0-1.6,1.31c-.86,1.76-2.45,2.71-4,3.66-2.78,1.68-5.52,3.46-8.44,4.86-4,1.9-7.45,4.59-11.32,6.66a1.12,1.12,0,0,0-.19,2c.53.46,1.1.89,1.66,1.32a12,12,0,0,1,4,6.81,7.13,7.13,0,0,1-1.47,6.76,20.34,20.34,0,0,1-9.21,6.53,26.8,26.8,0,0,1-8.26,1.66,19.59,19.59,0,0,0-2.93.38,10.85,10.85,0,0,1-2.5.32c-3.36-.31-6.73-.63-10.07-1.14a113.76,113.76,0,0,1-19.33-4.45,13.14,13.14,0,0,0-3.78-.26c-3-.06-5.91.14-8.85-.68-2-.56-4.19-.15-6.31-.5a45.71,45.71,0,0,1-10.48-3.26,49.72,49.72,0,0,1-16.82-11.19c-1.83-1.92-1.9-4-1.61-6.25a2.39,2.39,0,0,1,1.21-1.66,6.12,6.12,0,0,1,2.73-1.1,10.3,10.3,0,0,0,2.09-.26c1.56-.48,3.78-2.36,3.42-2.79-.9-1.07-2.24-1.05-3.48-1.31s-2.35-1-3.69-.58c-1.09.27-2.18.56-3.19-.23v0c-1-.87-2.45.1-3.44-.83l-.22-.18-.27.09c-1.15-.68-2.65.18-3.72-.85l0,0C986.45,447.31,985.2,448.15,984.6,447.13Z"/><path class="cls-6" d="M858.78,679.2l-.24-.17-.28.08c-1.16-.67-2.62.12-3.73-.77l-.24-.17-.28.1c-1.16-.66-2.59.08-3.72-.74l-.28-.18-.32.08c-1.1-.74-2.57.14-3.62-.82l0,0c-.3-.25-.61-.49-.92-.73l-.07-.07a3.4,3.4,0,0,0-.78-.78l-.07-.07a3.21,3.21,0,0,0-.78-.78l-.07-.07a3,3,0,0,0-.78-.78l-.07-.07a3.21,3.21,0,0,0-.78-.78l-.07-.07a4.71,4.71,0,0,0-.77-.84v0c-1.12-4.56.29-9.27-.76-13.84a6.31,6.31,0,0,0-.14-3.17c-1-3.11.28-6.4-.73-9.51a9.52,9.52,0,0,0-.12-4.08c-.77-5-.13-10.08-.36-15.12-.07-1.52.37-3.09-.38-4.55a13.39,13.39,0,0,0-.12-5c-1-4.29.3-8.7-.7-13a3.8,3.8,0,0,0-.12-2.31c-1-3.1.29-6.38-.76-9.48v-3.11c1.09-4-.31-8.08.78-12l0,0a3,3,0,0,0,.72-.85l.11-.1a2.13,2.13,0,0,0,.78-.74l.08-.05a3,3,0,0,1,1.17-.68.41.41,0,0,0,.56-.16,3.68,3.68,0,0,1,3.37,0,.38.38,0,0,0,.54.15c.69.32,1.46.21,2.16.48,4.07,4.45,9.8,5.71,15.18,6.87,9.27,2,11.93,8.49,12.93,16.51,1.2,9.52,2.5,19.13,2.42,28.66-.12,14.86,2.53,29.55,2,44.4a46.37,46.37,0,0,0,.47,6.33c.41,4.31-.89,5.61-5.53,5.81-.72,0-1.5.12-2.12-.43l-.22-.18-.27.08c-.9-.5-2.07,0-2.88-.8v0c-1-.88-2.45.11-3.41-.86h0c-1-.88-2.46.11-3.45-.84l-.22-.17-.27.09C860.78,679.46,859.62,679.93,858.78,679.2Z"/><path class="cls-6" d="M957.35,496.64a6.39,6.39,0,0,1,1.45,6.25c-1,4.39-2.22,8.74-2.33,13.26,0,1.38-1.58,2.14-1.35,3.45s.82,2.52.44,3.73c-1.12,3.54-.52,7.26-1.39,10.86-.75,3.09-.71,6.36-1.08,9.54-.33,2.79-.62,5.59-1.13,8.34a15,15,0,0,1-2.57,6.62,37.14,37.14,0,0,0-2.81,5.21c-1.19,2.23-2.41,4.44-3.61,6.67a6.28,6.28,0,0,1-.52,3.08,26.62,26.62,0,0,1-3.55,5.23c-3.43,3.9-6.71,7.47-8.82,12.77C927.21,598.8,920,602.52,912,604.06c-7.38,1.42-13.51-.57-18.91-5.52-1.35-3.73.22-6.2,3.4-8.06,2.8-1.63,5.78-2.91,8.59-4.51,5.64-3.21,6.24-5.88,3.32-11.5-2.42-4.66-2.12-9.47.53-14.07a21.73,21.73,0,0,0,1.83-1.76l-.08.07a3.2,3.2,0,0,1,.76-1v0c.54-.4.32-1.31,1-1.59l-.09.09a1.93,1.93,0,0,1,.79-1l0,0a7.1,7.1,0,0,0,.66-.87.36.36,0,0,0,.27-.47,1.51,1.51,0,0,1,.86-1.21l-.06.07a2.19,2.19,0,0,1,.89-.92l0,0c.41-.53.27-1.33.89-1.75l-.06.06c.23-.32.46-.63.7-.93a.32.32,0,0,0,.21-.46,1.62,1.62,0,0,1,.83-1.22l0,.05c.19-.35.52-.61.72-1l0-.06c.61-.36.39-1.22,1-1.59l0,0q.35-.43.66-.9a.38.38,0,0,0,.25-.5,1.78,1.78,0,0,1,.8-1.2l0,0c.48-.46.28-1.36,1-1.65l-.09.09a1.91,1.91,0,0,1,.77-1l0,0c.49-.46.29-1.35,1-1.65l-.09.09a2.09,2.09,0,0,1,.77-1v0c.49-.46.3-1.33,1-1.67l-.08.09c.12-.43.48-.68.75-1v0c.54-.41.35-1.26,1-1.63l-.06.07a10,10,0,0,1,.73-1l0-.06c.59-.37.37-1.21.94-1.6l0,0a6.18,6.18,0,0,0,.64-.88.41.41,0,0,0,.28-.51,1.55,1.55,0,0,1,.86-1.17l-.06.06a2.94,2.94,0,0,1,.85-.94l0,0c.45-.5.34-1.25.78-1.75l0,0c.56-.4.35-1.26,1-1.62l-.06.08a3,3,0,0,1,.82-1h0c.27-.3.56-.58.84-.86h0c.27-.29.56-.57.84-.85h0c.77-.69.1-1.85.82-2.56h0c.54-.43.35-1.26.94-1.66l0,.06c.2-.35.53-.6.74-.95l0-.08a2,2,0,0,0,.74-.78l.11-.1a1.78,1.78,0,0,0,.74-.75l.11-.11a1.76,1.76,0,0,0,.74-.74l.09-.09c1.07-.87-.08-2.39,1-3.26l0,0c.46-.49.29-1.33,1-1.7l-.08.08c.14-.4.5-.65.71-1l0-.06c.59-.36.38-1.22,1-1.59l0,.05c.43-.51.26-1.36,1-1.72l-.08.09c.12-.42.49-.67.72-1l0-.05c.58-.39.38-1.22.94-1.62l0,0c.46-.48.28-1.33,1-1.69l-.08.09c.13-.43.49-.67.74-1l0,0a3,3,0,0,0,.73-.85l.1-.1a1.73,1.73,0,0,0,.75-.74l.1-.11a1.73,1.73,0,0,0,.75-.74l.1-.11a1.78,1.78,0,0,0,.75-.74l.1-.11a1.73,1.73,0,0,0,.75-.74l.1-.11a10.33,10.33,0,0,0,1-.67l0,0c.27-.31.52-.29.71.08l0,0c1,.12,1.34.93,1.83,1.61l0-.06A8.86,8.86,0,0,1,957.35,496.64Z"/><path class="cls-7" d="M1084.55,294.24h-.35l-.27.23c-.54.35-1.26.21-1.74.69l-.81.13a20.93,20.93,0,0,1-7.61,0l-.38-.19-.42,0c-.49-.48-1.29-.33-1.76-.84h0a2.42,2.42,0,0,0-.84-.62.43.43,0,0,0-.54-.34,1.21,1.21,0,0,1-1.06-1l.11.09a1.07,1.07,0,0,1-1-.94l.09.09a1.05,1.05,0,0,1-.94-.94l.09.09a1.05,1.05,0,0,1-.94-.94l.09.09a1.07,1.07,0,0,1-.94-.94l.1.09a1.06,1.06,0,0,1-1-.94l.1.09a1,1,0,0,1-.93-1l.1.11c-.81-.21-.57-1.16-1.11-1.56h0a2.12,2.12,0,0,1-.73-1.22.32.32,0,0,0-.19-.5c-.42-.56-.34-1.3-.7-1.88a1.68,1.68,0,0,0-.14-1.51,5.58,5.58,0,0,1,0-4.23,1.26,1.26,0,0,0,.15-1.33c.52-.9,0-2.11.87-2.89l0,.08c.38-.55.24-1.36.9-1.77l-.07.08a2,2,0,0,1,.9-.93l-.06.07a2.05,2.05,0,0,1,.91-.91l-.06.06a2.05,2.05,0,0,1,.91-.91l-.06.06a2,2,0,0,1,.91-.91l-.06.06a2.1,2.1,0,0,1,.91-.91l-.06.06a1.94,1.94,0,0,1,.93-.9l-.08.07c.33-.65,1.21-.44,1.59-1l0,0a2.31,2.31,0,0,1,1.21-.69.35.35,0,0,0,.52-.21c.49-.4,1.24-.24,1.68-.76h0c.8-.7,1.93-.17,2.76-.77a11.37,11.37,0,0,0,3.86,0c.81.6,1.87.15,2.7.65l1.37.25a2.76,2.76,0,0,1,1.18.57.62.62,0,0,0,.7.22,7.51,7.51,0,0,1,1,.72l.07,0a1.77,1.77,0,0,0,.8.73l.09.1a32.78,32.78,0,0,1,4.17,4.16l.1.1a1.43,1.43,0,0,0,.73.74l.11.11a2.47,2.47,0,0,0,.71.86v0a2.45,2.45,0,0,1,.73,1.17q0,5.59,0,11.2a2.48,2.48,0,0,1-.68,1.26l0,.05c-.6.36-.38,1.23-1,1.59l.06-.07a4.63,4.63,0,0,1-.81.95h0c-.29.28-.57.56-.84.86h0a11.36,11.36,0,0,0-.85.85h0a11.36,11.36,0,0,0-.85.85h0a11.36,11.36,0,0,0-.85.85h0a11.36,11.36,0,0,0-.85.85h0a11.36,11.36,0,0,0-.85.85h0c-.3.27-.58.56-.88.83h0A2.52,2.52,0,0,1,1084.55,294.24Z"/><path class="cls-8" d="M1133,619.1c.68.18,1.37.32,2,.54,1.54.52,1.65.75,1.09,2.05-.84,1.94-1.68,3.88-2.54,5.81a26.05,26.05,0,0,0-2,11.56,12.36,12.36,0,0,0,1.86,6c3.2,5.45,8.19,8.49,14,10.31a22,22,0,0,0,13.74,0,11.91,11.91,0,0,0,5.77-3.41,4.91,4.91,0,0,1,4.57-1.63.48.48,0,0,1,.18.56c-.07.18-.15.27-.22.27l0,0a7.15,7.15,0,0,1-.87.87l0,0a4.77,4.77,0,0,1-.88.86l0,0a4.89,4.89,0,0,1-.88.88l0,0a3.5,3.5,0,0,1-.9.86l0,0a2.45,2.45,0,0,1-.91.87l.05-.07c-.38.65-1.21.48-1.7.93h0c-.45.56-1.23.43-1.75.84l0,0c-.72.88-1.92.25-2.73.86l-.33,0-.3.12a34.46,34.46,0,0,1-11.9,0l-.31-.12-.33,0c-.82-.59-2,0-2.74-.79h0c-.67-.77-1.91,0-2.53-.92l0,0c-.52-.4-1.32-.26-1.74-.88l0,.06a4.74,4.74,0,0,1-.93-.8h0c-.43-.52-1.28-.32-1.64-1l0,.06a2.18,2.18,0,0,1-.91-.87l0,0a2.4,2.4,0,0,1-.9-.89l0,0a2.4,2.4,0,0,1-.9-.89l0,0a2.38,2.38,0,0,1-.89-.89l0,0a2.4,2.4,0,0,1-.9-.89l.05,0a2.4,2.4,0,0,1-.9-.89l0,0a2.27,2.27,0,0,1-.89-.9l.06.06c-.62-.33-.39-1.22-1-1.56l-.06-.08a9.09,9.09,0,0,0-.73-.91l0,0c-.54-.42-.36-1.24-.9-1.67h0c-.46-.5-.34-1.26-.8-1.75l0,0c-1-1,0-2.51-.83-3.59,0-.78-.07-1.57-.11-2.36a5.44,5.44,0,0,1,0-4.21,1,1,0,0,0,.08-.77c.86-1,0-2.45.78-3.48a.91.91,0,0,0,.1-.7c.39-.57.3-1.33.76-1.87l0,0c.54-.43.38-1.2.81-1.68l0,0c.87-.62.07-1.87.95-2.48l0,0A3.66,3.66,0,0,1,1133,619.1Z"/><path class="cls-6" d="M975.23,533.31a1.88,1.88,0,0,1,2,.21c1.5,1,3,2,4.51,3.07a13,13,0,0,0,3.55,2.19,3.58,3.58,0,0,1-.65,1.05c-1.26,1-1.1,2.19-.4,3.39a13.28,13.28,0,0,0,1.11,1.27c1,1.27,1,1.66-.22,2.88-.89.9-1.88,1.71-2.82,2.57a3.17,3.17,0,0,0-.71,4.14,8.53,8.53,0,0,0,3.47,3,2.22,2.22,0,0,0,2.36-.16,35.2,35.2,0,0,1,3.7-2.06c1.81-.85,2.58-.61,3.53,1,.5.85.92,1.75,1.37,2.63s.76,1.52,1.15,2.28c1.48,2.83,3.45,4.78,7,3.75,1.92,3.26-.58,5.11-2.51,6.75-2.46,2.1-3.94,4-2.82,7.55.85,2.68-.31,5-3.21,6.06-3,2.27-3.05,2.3-6.77,1.29-1.73-.47-3.62-.59-4.9-2.16-.39-.48-1-.36-1.56-.18-1.7.54-3-.19-4.13-1.35-1-1-1.77-2.21-3.16-2.72a3.88,3.88,0,0,1-2-2.64c-.62-3.39-2.34-6.3-3.84-9.31a16.78,16.78,0,0,0-1.65-1.9c-2.19-1.85-2.32-4.1-1.21-6.47a4,4,0,0,0,.4-2.78,7.34,7.34,0,0,1,.09-2.51c.48-3.89,1.11-7.77,1.45-11.67a6,6,0,0,1,1.84-4.1C971.91,536.76,973.55,535,975.23,533.31Z"/><path class="cls-6" d="M1051.53,548.49a3.46,3.46,0,0,1-.71-.46,2.54,2.54,0,0,0-3.74-.27c-1.47,1.09-3,2.09-4.51,3.14a1.53,1.53,0,0,1-2.25-.06c-2.45-2.52-5.16-4.81-7.16-7.91.88-1.1,1.75-2.18,2.6-3.26a3.09,3.09,0,0,0,0-3.93c-1.07-1.54-2.31-2.85-4.57-2a10.09,10.09,0,0,1-2.53.08,3.82,3.82,0,0,1-3.38-1.36,4.79,4.79,0,0,0-.91-.89c-3-2-3.48-5.27-4-8.48-.23-1.33.55-2.1,1.51-2.78,3.35-3.67,3.4-3.85,8.22-2.36,5.63,1.73,11.45,2.88,17,5a3.7,3.7,0,0,0,2,.07c4.14-.54,7.37,1,10,4.19,1,1.22,1.61,2.69.93,3.88-1.75,3.09-1.28,6.6-2.22,9.82a7.79,7.79,0,0,1-2.12,4C1054.27,546.09,1053.26,547.7,1051.53,548.49Z"/><path class="cls-9" d="M986.38,477.94c4.71-.5,9,3.07,9.15,8.5.1,4.6-5.36,9-9.08,9.06s-8.61-4.42-8.51-9c.06-3,2.13-4.8,3.67-6.92A4.75,4.75,0,0,1,986.38,477.94Z"/><path class="cls-10" d="M995.61,584.91c2.43-2.08,2.79-4.65,1.92-7.58-.35-1.2-.48-2.46-.72-3.76a20.17,20.17,0,0,0,3-1.55c1-.75,1.76-1.83,2.76-2.6,1.69-1.28,1.88-3,1.62-4.87a10.47,10.47,0,0,1,1.68,0c4,.63,6,3.36,5.48,7.38a3.62,3.62,0,0,1-2.34,3.21,4,4,0,0,1-1.16.46c-3,.06-4.62,2.35-6.57,4.13-1.73,1.6-2,3.27-.56,5.16a1.22,1.22,0,0,1-1.19.86A7.26,7.26,0,0,1,995.61,584.91Z"/><path class="cls-11" d="M1015.19,488.55c0,2.73-2.59,5.37-5,5.21-2.23-.15-4.25-2.78-4.2-5.48s2-4.51,5-4.5A4.5,4.5,0,0,1,1015.19,488.55Z"/><path class="cls-12" d="M969.28,567.84c2.78,1.41,3.79,3.92,4.25,6.79a12.49,12.49,0,0,0,1.56,5.16,13.88,13.88,0,0,1-5.69-1.14,2.55,2.55,0,0,1-2-2.42A18.47,18.47,0,0,1,969.28,567.84Z"/><path class="cls-13" d="M943,575.68c-.26-.93.11-2.1-1-2.7l1-2.41C944.55,572.25,943.85,574,943,575.68Z"/><path class="cls-14" d="M957.35,496.64a1,1,0,0,1-.89-.95A1.25,1.25,0,0,1,957.35,496.64Z"/><path class="cls-6" d="M1046.63,441.35c-2.55-.08-6.09-1.11-9.64-2-13.28-3.24-26.53-6.62-39.79-10a56.13,56.13,0,0,1-5.66-1.76c-2.16-.79-2.8-1.85-2.73-4.21a7.63,7.63,0,0,1,.27-2.09c.74-2.12.73-4.48,2.08-6.39,2.28-.58,4.38.38,6.55.78,6.36,1.19,12.75,2.24,19.1,3.49,4.15.82,8.24,1.91,12.37,2.82q11.13,2.46,22.29,4.82a6.68,6.68,0,0,1,2.74,1,1.34,1.34,0,0,1,.53,1.05c-.65,3-.89,6.11-2.09,9C1051.29,441.29,1051.28,441.41,1046.63,441.35Z"/><path class="cls-6" d="M991.33,382c0-1,0-2,0-3a5.53,5.53,0,0,1,1.36-3.93c1.91-2,3.5-4.33,5.76-6.14a7.81,7.81,0,0,1,8-1.14,17.23,17.23,0,0,1,11.59,12c1.51,5.14-.41,8.18-3.33,11a17.33,17.33,0,0,1-6.21,3.59,14.19,14.19,0,0,1-15.79-5.06,6.78,6.78,0,0,1-1.35-4C991.35,384.29,991.33,383.16,991.33,382Z"/><path class="cls-6" d="M1044.84,391.21a13.26,13.26,0,0,1,.68-4.16,7.66,7.66,0,0,1,5.66-5.15,26.28,26.28,0,0,1,4.12-.79,11.4,11.4,0,0,1,10.14,4.14,13,13,0,0,1,3.08,7.73,10.21,10.21,0,0,1-2.17,6.7,16.47,16.47,0,0,1-6.59,5.12c-2.42,1.16-4.79.55-6.88-.46a14.57,14.57,0,0,1-7.11-7C1044.88,395.49,1044.85,393.58,1044.84,391.21Z"/><path class="cls-9" d="M1101.76,410.37a31.42,31.42,0,0,1,2.58-12.79,17.64,17.64,0,0,1,1.82-3.33,2.9,2.9,0,0,1,2.5-1.39,4.61,4.61,0,0,0,1.66,0c.9-.32,1.7-1.13,2.76-.64a6.17,6.17,0,0,1,2.88,3,15.6,15.6,0,0,1,1.68,5.67,29.87,29.87,0,0,1-1.44,13c-1,2.68-2.32,5.15-5,6.65-3.57,2-6.18,1.3-8.39-2.64a8.5,8.5,0,0,1-1.08-4.07C1101.75,412.64,1101.76,411.51,1101.76,410.37Z"/><path class="cls-6" d="M1051,337.7c2.81.21,6.45.49,9.76,2.34a6.4,6.4,0,0,1,3,3.39c1,2.58.71,4.38-1.81,6.3-2.79,2.12-5.85,3.82-9.72,3.34a13.7,13.7,0,0,1-5.19-1.62c-3.93-2.23-5.47-5.59-4.57-10a3,3,0,0,1,1.08-1.75C1045.64,337.88,1046.46,337.62,1051,337.7Z"/><path class="cls-15" d="M1053.55,627.23a4.55,4.55,0,0,1,4.13,1.52.91.91,0,0,1,0,1.42,1.1,1.1,0,0,1-1.49.21C1055.11,629.56,1054,628.8,1053.55,627.23Z"/><path class="cls-16" d="M1061.85,460c4.24,0,8.28,1.31,12.44,1.86.91.12,1.71.9,2.59,1.33.73.35,1.91.22,2.08,1.17.22,1.22-1.19,1.33-1.86,1.94a1.27,1.27,0,0,1-1.89-.17c-2.28-2.65-5.68-2.89-8.64-4.1a2.45,2.45,0,0,0-2,.13c-1.39.65-2.08-.24-2.72-1.24a.57.57,0,0,1-.19-.62C1061.7,460.07,1061.78,460,1061.85,460Z"/><path class="cls-17" d="M1061.85,460l0,.92c-7.7-1.31-15.43-2.49-23.09-4.65a2.3,2.3,0,0,1,2.18-.41c5.47,1.33,11.13,1.57,16.54,3.14C1058.9,459.39,1060.63,458.59,1061.85,460Z"/><path class="cls-18" d="M915.44,581.65c-.22.13-.45.38-.63.35-.66-.11-.79-.63-.64-1.19a.67.67,0,0,1,.54-.36A.94.94,0,0,1,915.44,581.65Z"/><path class="cls-19" d="M1102.88,417.76a8.83,8.83,0,0,0,2.12,5,5.17,5.17,0,0,0,6.13,1.55,9.1,9.1,0,0,0,5-4.36,27,27,0,0,0,1.72-20.55,7.46,7.46,0,0,0-1.91-3.26,4.46,4.46,0,0,0-1.32-1c-1.25-.5-2.47-.54-3.27,1a7.77,7.77,0,0,0,1.41.9,5.16,5.16,0,0,1,3.27,4.13,26.32,26.32,0,0,1-1.38,16.59,7.44,7.44,0,0,1-2.93,3.54c-2.43,1.47-4.76.81-6-1.77a9.19,9.19,0,0,1-.69-2.42,30.58,30.58,0,0,1,1.51-14.57c.71-2.12,1.49-4.28,3.5-5.65a.6.6,0,0,0,0-1,1.14,1.14,0,0,0-.78-.17,4.31,4.31,0,0,0-3,2.74A34.36,34.36,0,0,0,1102.88,417.76Z"/><path class="cls-20" d="M1099.32,377.46a14.53,14.53,0,0,0,4.09-2.85,6.55,6.55,0,0,0,.61-1c-.09-.2-.12-.37-.21-.41s-.54-.28-.75-.21a9,9,0,0,0-4.37,3.09.64.64,0,0,0-.16.38,3,3,0,0,0,.12.78C1098.76,377.61,1099,377.65,1099.32,377.46Z"/><path class="cls-20" d="M999.39,359.08c3.19,1.16,6.36,2.36,9.61,3.36a186.5,186.5,0,0,0,26.92,5.79,270.93,270.93,0,0,1,40,9.37,178.58,178.58,0,0,0,17.62,4.4.83.83,0,0,0,.67-.36,1.07,1.07,0,0,0,.12-.8,2.13,2.13,0,0,0-1.85-1.49,87.73,87.73,0,0,1-9.48-2.27c-7-2.19-14-4.58-21.09-6.41s-14-3.48-21.12-4.63c-11.3-1.83-22.56-3.84-33.58-7.08-2.42-.71-5-1.06-7.21-1.53-.74.22-1.53,0-1.41.85C998.62,358.59,999.06,359,999.39,359.08Z"/><path class="cls-19" d="M1067.92,386.12a6.77,6.77,0,0,0-2.7,1.15c-2.06,1.22-4.15,2.4-6.18,3.67a1.64,1.64,0,0,1-2.26-.23c-1.63-1.56-3.24-3.13-4.89-4.68-1-1-2.06-1.9-3.15-2.8a1.32,1.32,0,0,0-1.58-.06,1.62,1.62,0,0,0-.68,1.46,7.17,7.17,0,0,0,1.45,3.9c1.4,2.11,2.82,4.2,4.44,6.59-1.7,1.29-3.2,2.35-4.6,3.52a2.62,2.62,0,0,0-.7,3.39,2.47,2.47,0,0,0,3,.92,48.77,48.77,0,0,0,5.06-2.13,2.22,2.22,0,0,1,3,.52c.67.72,1.38,1.42,2.1,2.09,1.46,1.33,2.92,2.65,4.43,3.92a1.64,1.64,0,0,0,1.57.38,3.7,3.7,0,0,0,2.41-5.57,13.53,13.53,0,0,0-1.66-1.91c-1.07-1.23-3.32-1.94-3-3.71s2.63-1.85,3.9-2.93a8.48,8.48,0,0,1,1.08-.67,6.5,6.5,0,0,0,2-2.09,3,3,0,0,0,.24-3.2A3.33,3.33,0,0,0,1067.92,386.12Z"/><path class="cls-19" d="M1040.5,443c2.74.68,5.5,1.29,8.27,1.79,2.59.46,3.54-.07,4.63-2.55a37.12,37.12,0,0,0,1.63-4.8c.39-1.35.64-2.75.91-4.13.13-.65.94-1.26.35-1.92a5.55,5.55,0,0,0-1.73-1.12,6.94,6.94,0,0,0-1.6-.51c-6.62-1.43-13.31-2.6-19.86-4.3-12.87-3.33-26-5.29-39-7.95-1.69-.34-2.12-.17-2.55,1.29a37.21,37.21,0,0,0-1.76,7.89c-.06,2.4.37,3.18,2.33,3.87,2.4.84,4.82,1.62,7.29,2.24q20.54,5.16,41.09,10.2Zm-47.41-14.5h0c-1.42-.37-1.74-.75-1.35-2,.66-2.15.72-4.46,1.82-6.48,2.28-.33,4.38.58,6.54,1,6.11,1.17,12.23,2.27,18.32,3.51,3.59.73,7.14,1.71,10.71,2.53q11.56,2.69,23.12,5.32c1,.24,1.48.83,1.23,1.83-.56,2.19-1.21,4.35-1.81,6.53-.24.86-.86,1-2.22.89-.38-.08-1.34-.29-2.31-.48-10.83-2.09-21.44-5.09-32.17-7.55-6.75-1.55-13.49-3.14-20.23-4.71C994.19,428.73,993.63,428.65,993.09,428.5Z"/><path class="cls-19" d="M993.3,390.51a13.89,13.89,0,0,0,6.65-.85c1.39-.58,2.76-2.12,4.24-1.41,1.3.63,2.18,2.14,3.23,3.28a28.44,28.44,0,0,0,4.85,4.71,4,4,0,0,0,1.5.74c1.31.18,3.61-2.3,3.44-3.66a7,7,0,0,0-2.24-3.92c-5.37-5.65-5.42-4.31,1.61-8,.87-.46,1.82-.79,2.67-1.27a11.61,11.61,0,0,0,2.08-1.46,3.28,3.28,0,0,0,.31-4.56,2.79,2.79,0,0,0-3.69-1.16c-1.53.73-3.06,1.45-4.57,2.22-2,1-4,2.13-6,3.14-1.65.82-2,.74-3.25-.71-1-1.16-2-2.41-3-3.57-1.32-1.47-2.67-2.91-4.08-4.3a5.58,5.58,0,0,0-1.78-1.09c-.88-.37-2.18.74-1.88,1.64a18.26,18.26,0,0,0,1.38,3.06c1.73,3.07,3.51,6.1,5.26,9.11a16.28,16.28,0,0,1-7,4.76,12.91,12.91,0,0,0-1.52.66,1.18,1.18,0,0,0-.12,1.83A3.26,3.26,0,0,0,993.3,390.51Z"/><path class="cls-19" d="M1011.29,496.82a5.7,5.7,0,0,0,5.4-5.5,5,5,0,0,0-4.58-4.71c-3.26,0-5.19,1.78-5.22,4.84,0,2.72,2.08,5.31,4.4,5.37Zm-1.65-6.88h0c.29-.5.81-.77,1.9-.66a8.45,8.45,0,0,1,1.43.75,2,2,0,0,1-1.66,3.54A2.55,2.55,0,0,1,1009.64,489.94Z"/><path class="cls-19" d="M987.56,498.57c4.71,0,9.3-4.62,9.22-9.33-.08-5.33-3.75-8.6-9.48-8.6-1.79,0-3.48.28-4.6,1.7-1.72,2.19-3.94,4.25-3.79,7.34.25,5.32,4.91,8.92,8.65,8.89Zm-4.21-11.5h0c.55-.16,1.14-.26,1.31-.87.43-1.5,1.63-1.27,2.73-1.31a7.91,7.91,0,0,1,3.3.55,4,4,0,0,1,2.42,4.81,5.72,5.72,0,0,1-11.06-.45C981.89,488.68,981.9,487.48,983.35,487.07Z"/><path class="cls-19" d="M1180.28,629.52c-3.68-9.12-9.73-15.83-19.56-18.5-.79-.22-1.72-.1-2.36-.8-.43-.7,0-1.34.15-2a16.88,16.88,0,0,0-.29-8.38c-.58-1.74-.89-3.57-1.46-5.31q-6.13-18.75-13.44-37.08c-1.31-3.28-2.68-6.55-3.81-9.89a427.11,427.11,0,0,0-16.15-41,5.47,5.47,0,0,1-.39-3.27c.41-2.8.68-5.62.87-8.44a156.78,156.78,0,0,1,2.87-23.56c.71-3.29-.65-5.6-3.72-6.59a35.88,35.88,0,0,0-4.13-1,118.45,118.45,0,0,0-14.32-1.66c-.61,0-1.42.22-1.8-.61.42-1.07,1.44-1.36,2.29-1.72,4.83-2,9.36-4.66,14-7.06a6.94,6.94,0,0,0,4-5.12c.64-3.18,1.42-6.34,2.25-9.48,2.08-7.93,4.26-15.84,5.63-23.94,1.89-11.15,4.07-22.26,6.4-33.33,1.6-7.6,3.33-15.2,4.14-22.95.33-3.23.59-6.46-.28-9.68a3.8,3.8,0,0,0-2.64-3.05c-4-.94-7.7-2.8-11.86-3.18A99.73,99.73,0,0,1,1112,339.6c-5-1.21-9.94-2.2-15-2.92-4.2-.6-8.42-1.1-12.61-1.73-6.45-1-12.68-2.89-19-4.28-.78-.18-1.71-.17-2.29-1.07.11-.48.21-1,.38-1.57a192.52,192.52,0,0,1,9.34-24.11c.24-.51.51-1,.75-1.52a2.22,2.22,0,0,1,2.36-1.42c.43,0,.85.12,1.27.14a17.72,17.72,0,0,0,16.06-7.76c4.22-5.84,5.42-12.27,2.92-19.29a15.68,15.68,0,0,0-8.9-9.66,21.61,21.61,0,0,0-7.85-1.67,15.09,15.09,0,0,0-12.31,5.56,45,45,0,0,0-2.91,4.17,15.6,15.6,0,0,0-2.3,5c-1.75,7.29-.31,13.75,5.06,19.13a2.45,2.45,0,0,1,.59,3.32,146.26,146.26,0,0,0-7.28,17.63c-1.12,3.21-2.24,6.41-3.28,9.65-.36,1.13-1,1.66-2.14,1.5-.56-.07-1.13-.11-1.68-.21-7-1.34-14-1.73-21.07-2.47a34.86,34.86,0,0,0-8.71.49,68.91,68.91,0,0,0-13.83,3.89c-2.53.91-5,1.86-7.64,2.54a175.52,175.52,0,0,0-24.85,8.52,16.75,16.75,0,0,0-3.65,2.09,3.18,3.18,0,0,0-1.46,3.28,17.2,17.2,0,0,1-.56,7.1A258.22,258.22,0,0,0,967,380.69c-1.07,9.7-1.84,19.43-2.77,29.15-.41,4.37-.72,8.75-1.38,13.08-.92,6-2.09,12-3.23,17.95a12.06,12.06,0,0,0-.32,3.78,2.52,2.52,0,0,0,3,2.17,6.37,6.37,0,0,1,3.33,0c7.53,1.93,15.06,3.83,22.6,5.75a15.73,15.73,0,0,1,2,.59c.53.21,1.36,0,1.58,1a10.25,10.25,0,0,1-1.52.81c-5.25,1.68-10.5,3.38-15.77,5a28.35,28.35,0,0,1-7.5,1.35c-2.87.06-4.42,1.53-4.61,4.38a113,113,0,0,1-2.28,14.65,15,15,0,0,1-2.24,5.43c-2.09,3.2-4.2,6.39-6.08,9.71a7.84,7.84,0,0,1-4.34,3.66c-6.39,2.5-11.29,6.48-12.21,13.86a3.6,3.6,0,0,1-2.2,2.88c-1.76.91-3.44,2-5.12,3a29.92,29.92,0,0,0-6.58,5.33,32.41,32.41,0,0,0-2.51,3.4.62.62,0,0,0,.85.82c.79-.81,1.49-1.7,2.29-2.5a24.32,24.32,0,0,1,12.12-6.61,1.32,1.32,0,0,1,1.51.4,1.7,1.7,0,0,1,.22,2c-.41.74-.86,1.46-1.31,2.18C926.88,536,919.13,548,911,559.71a4,4,0,0,1-3.41,1.95c-6.6.5-12.2,3.33-17.09,7.7a17,17,0,0,0-5.28,8c-.19.68-.41,1.35-.6,2a1.61,1.61,0,0,1-1.91,1.29,34.65,34.65,0,0,1-5-.91c-5.28-1.59-10.53-3.27-15.78-5a13.17,13.17,0,0,1-3.46-1.55,4.52,4.52,0,0,0-4.41-.34,136.44,136.44,0,0,1-13.37,4.09,2.54,2.54,0,0,0-2.09,2.36c-.11.85-.16,1.69-.24,2.54-.83,8.47-.4,17-.25,25.44.16,9.19.71,18.37,1.08,27.56.19,4.8.31,9.61.57,14.41.39,7.49,1.21,14.95,1.14,22.47a50.78,50.78,0,0,0,.24,5.51c.21,1.94,1.65,3,3.47,2.36a4.07,4.07,0,0,1,3.23.33,101.32,101.32,0,0,0,18.91,6.2c3.16.76,6.27,1.7,9.41,2.56a4.22,4.22,0,0,1,2.33,1.66c1.73,2.26,2.12,2.33,4.49.73,4.57-3.09,9.06-6.3,13.58-9.47a6.25,6.25,0,0,0,2.31-2.45c.79-1.79,2.32-2.81,3.85-3.82,2.48-1.64,5-3.24,7.5-4.82,12.1-7.61,24-15.47,34.92-24.8.42-.35.91-.84,1.48-.35a1.76,1.76,0,0,1,.48,1.09c.44,4.93.84,9.87,1.28,14.8,1,10.85,2,21.69,2.89,32.55.17,2,0,4,.12,5.94a3.27,3.27,0,0,0,2.69,3.34c1,.26,1.95.4,2.92.57,11.59,2.08,22.76,5.67,33.78,9.75a33.77,33.77,0,0,1,3.49,1.52,1.34,1.34,0,0,1,.54,1.83h4.25c1.12-1.16,2.73-1.43,4.06-2.19,1.84-1.06,3.71-2.06,5.56-3.11a5.23,5.23,0,0,0,2.76-3.09c.4-1.72,1.59-2.57,2.73-3.62,1.86-1.73,3.73-3.47,5.46-5.34,4.7-5.11,9.71-9.89,14.75-14.66,7.1-6.72,14.12-13.53,19.29-21.94a6.46,6.46,0,0,1,3.21-2.59,81.05,81.05,0,0,0,8-3.87c7.39-4.17,14.71-8.47,22.07-12.7,3.19-1.83,6.33-3.74,9.6-5.43a10.63,10.63,0,0,0,6-9.07c.34-3.38.74-6.76,1.22-10.12q2.6-18.06,5.28-36.1c.09-.61-.09-1.42,1.06-1.72.32.54.72,1.1,1,1.72,1.47,3.21,3,6.4,4.33,9.67,3.22,7.85,6.4,15.71,9.46,23.63,1.22,3.16,2.94,5.73,6,7.29a8.6,8.6,0,0,1,1.38,1.13,32.67,32.67,0,0,0-3.63,14.75c-.15,6.52,1.86,12.28,6.63,16.85,8,7.7,24.19,10.87,34.93,3a30.19,30.19,0,0,0,10.62-14.47c1.9-5.2,1.36-10.33-.65-15.32ZM1156.89,656h0a28.06,28.06,0,0,1-13.55-2.78,14.66,14.66,0,0,1-8.37-11.93,31.15,31.15,0,0,1,1.27-14.62,2,2,0,0,1,2.14-1.63c3.25.1,6-1.22,8.68-2.94a19.85,19.85,0,0,0,2.46-1.64c1.77-1.6,3.67-2.65,5.46-2,6.26-.14,10.86,1.9,14.51,6.11a24.92,24.92,0,0,1,5.91,10.62,10.35,10.35,0,0,1-.25,6.64c-.11.25-.15.55-.24.81-3,8.45-8.85,13.21-18,13.41Zm-60.11-30.23h0c-.9,6.1-.87,5-5.06,7.42-6.27,3.56-12.49,7.22-18.72,10.86a28.61,28.61,0,0,1-5.7,2.93c-.49-1.61-.06-3,.06-4.34.19-2.25.38-4.51.53-6.76,0-.22-.29-.66-.37-.64-.37.09-1,.23-1,.47-.42,1.49-.73,3-1,4.54-.52,2.49-1,5-1.54,7.47-.18.83-.36,1.69-1.28,2.06-.38.16-.81.51-1.14.43-.76-.17-.5-.84-.41-1.35a11.73,11.73,0,0,1,.42-1.65c1.63-5,.81-9.89-1.4-14.43a17.56,17.56,0,0,0-14.59-10.29,26.84,26.84,0,0,0-17.12,3.52c-6.84,4.07-13.45,8.38-19.11,14-.56.56-1.07,1.38-2.1,1.19-.14-.23-.37-.43-.4-.67-.32-2.52-.69-5-.88-7.58a131,131,0,0,1-.19-19.51c.19-2.49-.69-4.73-1.43-7a3.77,3.77,0,0,0-2.92-2.23c-2.33-.62-4.67-1.17-7-1.8-8.87-2.43-17.72-4.89-26.58-7.32-1.91-.52-3.84-1-5.77-1.39s-3.42,1.12-5.23,1.46c-3.18.61-6.18,2-9.44,2.25-.78-.52-.44-1.23-.34-1.89q1.62-10.92,3.23-21.83c.2-1.4.32-2.81.41-4.22a14.89,14.89,0,0,1,1.85-6.9c1.2-2,1.08-4.35,1.44-6.54,1.6-9.62,2.68-19.32,3.62-29.05a170.4,170.4,0,0,1,4-23.83c.41-1.71.68-1.89,2.3-1.55a25.18,25.18,0,0,1,11,5.15c1.52,1.23,2.08,2.46,1.41,4.4-1,2.94-1.84,5.94-2.67,8.93a206.32,206.32,0,0,0-5.82,31.26c-.93,8-2.53,15.91-4,23.85-.49,2.63-1.36,5.2-1.31,7.93a2.93,2.93,0,0,0,1.28,2.51c.63.46,1.29.81,1.92.34,1.57-1.14,2.72-.61,4.13.44,1,.71,2.37.82,3.6,1.13,2.19.56,4.43,1,6.59,1.62a215,215,0,0,0,28.61,6.06c11.87,1.88,23.75,3.73,35.49,6.37,3.85.86,6.3-.84,6.54-4.9a89.84,89.84,0,0,1,1-9.26q1.73-10.69,3.51-21.36a12.84,12.84,0,0,1,.66-2.45c.25-.65.82-.68,1.36-.32a12.37,12.37,0,0,1,3.58,3.59c3.53,5.46,4.52,11.5,3.9,17.88a1.38,1.38,0,0,1-1.42,1.28,10.32,10.32,0,0,0-6.47,2.84c-2.12,2-2.22,4.55-1.58,7.08.58,2.33,3.56,3.61,5.89,2.72a8.19,8.19,0,0,0,4-3.07c.72-1,1.38-2.12,2.3-3.53a19.59,19.59,0,0,1,2.2.77c3.45,1.66,3.49,1.75,2.93,5.49-.93,6.3-2,12.58-2.75,18.9-.5,4.06-.59,8.18-.85,12.27a.88.88,0,0,0,.55,1c.89.23.8-.57.88-1,.87-5.3,1.73-10.61,2.54-15.92.68-4.47,1.28-9,1.93-13.44a3,3,0,0,1,.94-2c1.65.93,2.46,2.66,3.41,4.15,2.86,4.46,5,9.19,4.48,14.71,0,.47.06.84.58.83a.87.87,0,0,0,.58-.47,9.62,9.62,0,0,0,.53-5,65,65,0,0,0-2.46-10.31c-1.06-3.26-2.41-6.4-5-8.77a5.07,5.07,0,0,1-1.56-5c.73-4.9,1.39-9.8,2-14.71,1.38-10.52,3-21,4-31.58.45-5.07,1.17-10.12,1.77-15.17a2.16,2.16,0,0,1,.22-.81,1.07,1.07,0,0,1,.6-.5.76.76,0,0,1,.54.45c2.56,10.16,7.64,19.12,13.1,27.91a23.77,23.77,0,0,1,1.42,3.07c.17.39.26.81.42,1.2,1.19,3,2.81,6,3.46,9.1s-.66,6.42-.92,9.65c-.31,3.8-.18,7.62-.92,11.41-.8,4.16-1.22,8.4-2,12.57-1.41,7.8-2.2,15.68-3.23,23.53-.06.43-.07.85-.13,1.27Zm-84.22,71h0c-.52-.13-.53-.61-.58-1q-.87-8.4-1.73-16.83c-.55-5.47-1.13-10.94-1.65-16.41-.18-1.8-.22-3.63-.37-6.29a24.36,24.36,0,0,1,9,9.94c2.76,5.61,4.15,11.67,5.54,17.71a4.07,4.07,0,0,1-1.26,4.18c-2.73,2.66-5.26,5.51-7.87,8.28a1.08,1.08,0,0,1-1.08.43Zm12.26-12.86h0c-.64-3.16-1.18-6.34-2-9.46a60.22,60.22,0,0,0-2.17-6.4A27.64,27.64,0,0,0,1010,654.77c-.23-.15-.46-.32-.69-.49-2-1.52-2.1-2.5-.38-4.49.46-.54,1-1,1.47-1.53,1.92-1.88,3.88-3.71,5.77-5.62a6.53,6.53,0,0,1,7.75-1.5,15.94,15.94,0,0,1,6.95,5.36,34.94,34.94,0,0,1,4.07,6.91,74,74,0,0,1,3.85,11.2,27.7,27.7,0,0,1,.61,4.18,3.27,3.27,0,0,1-.94,2.7,157.23,157.23,0,0,1-12.8,12.36c-.17.14-.52.06-.8.09Zm17.48-16.82h0a.66.66,0,0,1-1-.26,16.94,16.94,0,0,1-.53-2.47,46.87,46.87,0,0,0-2.57-10.68,38,38,0,0,0-4.85-8.43,18.78,18.78,0,0,0-9-6.76,13.28,13.28,0,0,1-1.55-.91,44.88,44.88,0,0,1,11-6.21c4.63-1.75,9.38-1.57,14.2-.52,4.64,1,9.25,7.73,7.76,13.4a31.86,31.86,0,0,1-1.88,5.16,80.88,80.88,0,0,1-10.38,16.47,7.06,7.06,0,0,1-1.17,1.21Zm-97.85-27h0a57.16,57.16,0,0,0-5.84,3.43c-2.1,1.29-3,2-3.45-1.37a50.26,50.26,0,0,0-1.89-7.38,25.72,25.72,0,0,0-10.75-14.26c-.81-.54-1.6-1.13-2.37-1.67a2.24,2.24,0,0,1,1.22-1.27,123.22,123.22,0,0,1,16.13-6.44,39.52,39.52,0,0,1,5-1,1.44,1.44,0,0,1,1.8,1.31,16.39,16.39,0,0,1,.28,2.09c.56,7.76,1.09,15.51,1.7,23.26a2.83,2.83,0,0,1-1.81,3.29Zm-47.06,29h0c-.53-3.06-1-6.13-1.54-9.19-1.31-7.66-2.11-15.38-2.73-23.12-.09-1.12.51-1.62,1.53-1.32a18.09,18.09,0,0,1,10.31,7,31.28,31.28,0,0,1,5.68,16c0,.84,0,1.54,0,2.25a2.81,2.81,0,0,1-1.32,2.49c-3.45,2.21-6.88,4.43-10.34,6.63a1,1,0,0,1-1.59-.77ZM881,682.76h0a3.59,3.59,0,0,1-.95-2.72c-.21-4.94-.56-9.88-.63-14.83-.16-11-.94-22-1.62-33.05-.55-8.76-1.41-17.49-2.1-26.23-.23-3-.66-5.9-1.08-8.84a9.6,9.6,0,0,0-.77-2.42,1.39,1.39,0,0,0-1.34-.86c-.73,0-.88.58-.89,1.17a16.61,16.61,0,0,0,.1,2.54c1,6.43,1.55,12.9,2,19.39.78,10.86,1.55,21.73,2.2,32.6.57,9.74,1,19.49,1.45,29.24,0,.55-.07,1.11-.14,2.21-4.44-1.12-8.53-2.23-12.65-3.17-5.24-1.19-10.5-2.27-15.76-3.35a1.85,1.85,0,0,1-1.7-2c0-2.12,0-4.25-.08-6.37-.5-9.32-1.11-18.63-1.55-27.95-.25-5.23-.14-10.48-.41-15.7-.37-7.21-.52-14.42-1.29-21.6-.59-5.48-.81-11-1.19-16.51a7.34,7.34,0,0,1,0-1.69.91.91,0,0,1,1.21-.81c1.09.3,2.14.71,3.21,1.07,5.89,2,11.76,4,17.66,6,2.6.86,4.23.63,4.07-.35-.31-1.81-2-1.85-3.25-2.27-4.42-1.47-8.88-2.84-13.33-4.25-.4-.13-.79-.3-1.18-.45s-.48-.36-.34-.65.25-.54.46-.62c1.58-.62,3.17-1.2,4.76-1.79a5.52,5.52,0,0,1,3.34,0,186.78,186.78,0,0,1,19.11,5.63c.66.24,1.32.51,2,.81a6.18,6.18,0,0,1,3.9,5.92c.37,12.3,1.77,24.54,2,36.86a209.64,209.64,0,0,0,2,24.09c1.07,7.56,2.17,15.11,3.76,22.59a2.73,2.73,0,0,1-1.14,3.29c-2.72,1.79-5.38,3.67-8.06,5.51-.75.51-1.33.08-1.86-.41Zm14.7-109.22h0a56.84,56.84,0,0,1,11.15-6.07.78.78,0,0,1,1.18.72c0,1.56,0,3.11,0,4.67A15.78,15.78,0,0,0,912.47,584a38.91,38.91,0,0,0,6.37,5.58,14.64,14.64,0,0,0,6.15,2.69,10.9,10.9,0,0,1,1.76.54,7.82,7.82,0,0,1-3.5,4.2c-8.1,4.89-16.4,5.45-25.1,1.46-9.88-4.55-10.22-19.48-2.43-24.93Zm75.37-104.78h0a13.08,13.08,0,0,1,2.48.47c6,1.53,12,3.25,18.09,4.58,8.29,1.81,16.65,3.26,25,5,19.38,4,38.72,8.22,57.9,13.16,2,.52,4.15.84,6.24,1.19.51.08,1.25.08,1.29-.7a1.42,1.42,0,0,0-.55-1,12.81,12.81,0,0,0-5-2.15c-9.63-2.26-19.24-4.63-28.91-6.74-13.26-2.88-26.5-5.88-39.88-8.23-9-1.59-18.09-3.25-27-5.55l-3.85-1a3.67,3.67,0,0,1,2.46-1.48c6.33-2,12.68-3.95,19-6a28.75,28.75,0,0,0,5.87-2.41,6.47,6.47,0,0,1,5.66-.58c.67.22,1.34.4,2.17.65a8.32,8.32,0,0,1-.48,4.12,23.86,23.86,0,0,0-.59,5,3.54,3.54,0,0,0,2,3.49,30.73,30.73,0,0,0,5,2.25c8.22,2.61,16.49,5.05,24.93,6.88,4.69,1,9.41,2,14.12,2.92.69.15,1.37.34,2.07.44,3.53.52,6-1.05,7.07-4.47a19.82,19.82,0,0,0,.88-8.16c3.4.48,6.35.88,8.24,3.89.74,1.19,1.33,1.22,2.51.44,4.36-2.91,9.06-5.23,13.64-7.76a6.31,6.31,0,0,1,5.24-.58,164.26,164.26,0,0,0,21,4.95c.39.06.94.14.82.7a1.7,1.7,0,0,1-.69.94c-3.34,2.12-6.78,4.11-10,6.35a66.58,66.58,0,0,1-8.56,5.49,14,14,0,0,0-2.7,2,1,1,0,0,0-.3.74c0,.22.21.45.38.64s.29,0,.4,0c3.06-1.46,6.26-2.6,9.06-4.58a83.13,83.13,0,0,1,10.15-6.16,4.24,4.24,0,0,1,2.61-.86c.71,3.43-.54,6.81-.63,10.23A62.12,62.12,0,0,1,1117,497.7c-2.17-1.24-4.17-2.23-6-3.46a9.83,9.83,0,0,0-8.52-1.25,22.12,22.12,0,0,0-14.12,12c-.69,1.38-.87,3-2.31,4.48.14-1.59.28-2.85.35-4.11s.11-2.55.11-3.82,0-2.27-.1-3.39c0-.34-.32-.86-.59-.94-.84-.24-.84.5-.87,1-.74,12.44-2.52,24.77-4.11,37.11q-3.12,24.19-6.24,48.4c-.21,1.68-.58,3.33-.94,5.37l-1.49-.43c-2.71-.7-3.79-2.25-3.58-5.21.31-4.26-.76-8.39-2.16-12.44a19.79,19.79,0,0,0-8-10.66,2.85,2.85,0,0,1-1.4-3.53c.89-3.71,1.6-7.47,2.56-11.16a84.79,84.79,0,0,0,2.12-12.11,7.94,7.94,0,0,1,1.11-3.54,3.84,3.84,0,0,0-2.63-5.83,12.27,12.27,0,0,0-2.11-.15,60.71,60.71,0,0,1-14.61-2.41,160.81,160.81,0,0,0-28.2-5.89c-.56-.07-1.13-.13-1.69-.22a1.16,1.16,0,0,1-1-1.51c2.36-12.75,13.84-17.06,23.26-13.43a7.06,7.06,0,0,1,1.32.88c-.23,1.56-1.65,2-2.37,3-1.59,2.26-2.09,4.61-.81,7.17a3.49,3.49,0,0,0,5.34,1.47,7.88,7.88,0,0,0,4-6.62c.09-1.89.58-2.26,2.35-1.9,5.35,1.08,10.35,2.92,14.3,6.91a6.23,6.23,0,0,0,.9.88.75.75,0,0,0,.7.08c.18-.15.34-.58.24-.74a8.77,8.77,0,0,0-1.42-2.06c-5-4.69-10.42-8.74-17.63-9.3a3.1,3.1,0,0,1-2.24-1c-4.47-5.17-14.87-5-20.88-1a20.87,20.87,0,0,0-9.06,12.37c-.21.82-.34,1.67-.55,2.48-.33,1.25-.8,1.67-2.14,1.51-3-.36-5.91-.71-8.8-1.32-3.6-.75-7.13-1.77-10.7-2.68a19.41,19.41,0,0,0-2.88-.68,12.72,12.72,0,0,1-8.94-4.88c-2.51-3-6.1-4.52-9.76-5.75-.94-.32-1.89-.6-2.83-.91a1.25,1.25,0,0,1-.91-1.63c.13-.69.22-1.39.36-2.09q2.42-11.83,4.83-23.69c.38-1.87,1-2.4,2.86-2.31ZM968,442.94h0c-2-.3-2.21-.57-1.93-2.42.32-2.1.62-4.21,1.11-6.27a151.52,151.52,0,0,0,2.94-21c.9-9.72,1.73-19.44,2.7-29.16.42-4.21,1.07-8.41,1.72-12.61.85-5.45,1.4-10.94,1.75-16.45a21.08,21.08,0,0,1,.24-2.1c.2-1.18.73-1.52,1.69-.89,2.66,1.74,5.78,2.25,8.69,3.3a2,2,0,0,0,1.22-.07,1,1,0,0,0,.52-.59.9.9,0,0,0-.1-.77,3.07,3.07,0,0,0-1-.78c-1-.53-2-1-3-1.5-1.65-.91-4-.65-4.9-2.8,1.25-1.46,3.14-1.71,4.76-2.45a74.85,74.85,0,0,1,12.44-4.18c4.94-1.29,9.76-2.88,14.55-4.62,1.06-.38,2.08-.91,3.17-1.2a40.22,40.22,0,0,0,13.38-6.23,2.8,2.8,0,0,1,2.76-.42c7.37,2.48,14.71,5,22.35,6.57a1.2,1.2,0,0,1,1,1.55,29.53,29.53,0,0,0-.71,8.43c.08,1.11,0,2.36,1.45,2.76,1.11.31,2.18-.35,2.81-2,1-2.51,1.69-5.1,2.55-7.64.44-1.31.91-1.66,2.16-1.4,3.18.67,6.36,1.35,9.51,2.15a150.47,150.47,0,0,0,20.43,3.76,170,170,0,0,1,20,3.6,98.14,98.14,0,0,0,13.38,2.17,24.07,24.07,0,0,1,8.28,2.26,92.82,92.82,0,0,1-8.77,6.81c-1.72,1.25-3.45,2.48-5.1,3.81a18.69,18.69,0,0,0-2.38,2.41c-.62.72-.7,2.2-.22,2.32.82.2,1.2-.51,1.75-.9,1.48-1.08,3-2.19,4.51-3.17a93.88,93.88,0,0,0,9.36-6.6c.64-.52,1.39-.93,2.06-1.38.94.61.47,1.3.35,1.89-2.87,14.56-5.86,29.1-8.62,43.68-1.5,7.92-2.59,15.92-4.59,23.74-1.47,5.75-2.94,11.5-4.52,17.21-.49,1.77-.12,4-1.45,5.23-1.15,1-3.12,1.16-4.65,1.86-3.84,1.78-7.69,3.58-11.46,5.53-5.39,2.79-10.72,5.72-16.09,8.58a4.2,4.2,0,0,1-2.35.85c-.74-1.25-.3-2.53-.11-3.71,1.13-6.84,2.13-13.7,3.55-20.48,2.82-13.44,4.94-27,6.62-40.59.33-2.67.88-5.3,1.28-8a13.36,13.36,0,0,0,.06-2.53c0-.39-.17-.93-.71-.85a1.8,1.8,0,0,0-1,.62,8.09,8.09,0,0,0-1.28,3.55c-.39,1.94-.65,3.91-.93,5.87-1.46,9.93-2.7,19.9-4.42,29.79-1.43,8.21-3.33,16.35-4.56,24.6-.57,3.77-1,7.57-1.5,11.36-.18,1.34-.64,1.67-2,1.38a41.05,41.05,0,0,1-4.1-1.05,104.47,104.47,0,0,0-16.47-3.95c-10.21-1.6-20.16-4.43-30.21-6.78-10.6-2.48-21.18-5.05-32-6.71-7.82-1.2-15.69-2.1-23.54-3.13-.85-.11-1.7-.15-2.53-.29Zm100.9-168.14h0a3.57,3.57,0,0,1,1.06-1.27c4.2-3.38,12.27-3.91,16.86-1.07a8.79,8.79,0,0,1,4.07,6.18c.79,4.32-.61,8.08-3.29,11.43a8,8,0,0,1-4.68,2.71c-1.37.3-2.79.39-3.62.5-5.79,0-9.37-2.09-11-6.48a16.44,16.44,0,0,1,.57-12ZM1062,468.86h0c-.48,1.9-.85,3.53-1.33,5.13a1.46,1.46,0,0,1-2,1.08c-4.7-1-9.41-1.91-14.12-2.88a253.21,253.21,0,0,1-24.91-6.78c-2.06-.65-2.12-.88-2.12-3.05a16.64,16.64,0,0,1,.13-2.12c0-.25.26-.47.5-.89,4.81.7,9.53,2.11,14.32,3.23,5,1.15,9.88,2.4,14.85,3.46,4.81,1,9.67,1.87,14.63,2.82ZM1121,518.54h0a70.24,70.24,0,0,0-25.65,14.62,20.9,20.9,0,0,1-3.62-8.94,25.11,25.11,0,0,1,1.45-13.74,29.61,29.61,0,0,1,5.46-9.51,5.87,5.87,0,0,1,4.48-2,10.65,10.65,0,0,1,8.06,3,38.28,38.28,0,0,1,9.38,14,3.34,3.34,0,0,1,.44,2.59Zm-79.69,19.11h0c-1.47-1.72-3-3.38-4.49-5.09a3.13,3.13,0,0,0-3.35-1.27,1.84,1.84,0,0,1-.42.09c-5.61.42-6.14-.14-5.75-6.09,1.87-.09,3.54.75,5.29,1.21,4.23,1.11,8.44,2.32,12.67,3.42a2.16,2.16,0,0,1,1.86,2c.58,4.11,3.18,6.11,7.24,6.61.53,2.5-.8,4.67-1.11,7.33-3.54-1.29-3.54-1.29-6.37.64-.71.47-1.41.94-2.11,1.43-2.21,1.54-2.17,1.63-4.12-.53-1.08-1.22-1.06-1.47.06-2.86.27-.33.59-.61.85-1,1.87-2.43,1.84-3.47-.25-5.91Zm-9.53,53.2h0a8.09,8.09,0,0,1-1.6.15q-10.26-1.68-20.5-3.42a19,19,0,0,1-2.46-.65c-.63-.2-.77-.78-.81-1.35a1,1,0,0,1,.86-1.23,16.33,16.33,0,0,0,6.74-3.44c3.91-3.15,4.81-6.84,2.68-11.31-2.46-5.17-7.69-8.18-12.3-7.2-2,.43-2.77-.35-3.52-1.95a23.37,23.37,0,0,0-4.47-6.67,1.69,1.69,0,0,0-2.27-.36c-1.83,1.07-3.68,2.1-5.53,3.15a1,1,0,0,1-1.48-.2,1.26,1.26,0,0,1,.06-1.86c1.14-1.26,2.27-2.53,3.31-3.86s1.3-2.5.23-3.87a4.32,4.32,0,0,1-.77-1.49,2.49,2.49,0,0,1,2.23-3.34q3.38-.47,6.75-.77c2.13-.18,2.47.11,2.81,2.13,0,.28,0,.57.08.85.38,2.1,1,2.7,3,2.86,1.54.12,3.11.05,4.66.18a4.34,4.34,0,0,0,4.73-2.79c.22-.51.34-1.07.94-1.36a32.29,32.29,0,0,1,7.28,2.07c1.17.43,2.31.93,3.37,1.36.12,1.61-.79,2.62-1.3,3.75-.82,1.77-.7,3.31.86,4.57a21.78,21.78,0,0,1,6.27,8.42c1,2.35,1.47,2.41,4.35,1.9,1.39-.25,1.87,0,2,1.33s.24,2.82.33,4.23a1.69,1.69,0,0,1-1.34,1.85,18.45,18.45,0,0,0-2.12,1.35,3.56,3.56,0,0,0-1.8,2.7,25.36,25.36,0,0,1-2.28,6.82c-1.32,2.61-1.52,5.1,1,7.45ZM992.4,576.11h0c.34,1.51.8,3,1.15,4.51a12.17,12.17,0,0,1,.25,2.1c.07,1.32-.47,1.83-2.28,1.62-.42-.11-1.38-.35-2.33-.61-2.46-.67-2.37-.67-2.25-3.34.37-8.19-2.73-14.65-10-18.68-4.6-2.55-3.7-1.47-3.28-6.44.31-3.66.93-7.29,1.44-10.92a6.94,6.94,0,0,1,.6-2,1.52,1.52,0,0,1,2.42-.74q2.68,1.7,5.24,3.58c4.72,3.5,5.22,3.22.17,7.29-2.16,1.73-2.21,3.27-.35,5.35.47.53,1,1,1.48,1.51a3.08,3.08,0,0,0,4.19.54,45.8,45.8,0,0,1,4.56-2.23,1.14,1.14,0,0,1,1.48.43,36.39,36.39,0,0,1,5.14,10.62,1.38,1.38,0,0,1-1.06,1.94c-1.22.34-2.47.56-3.71.85-2.68.64-3.48,1.9-2.87,4.61Zm-8.67,3h0a7.52,7.52,0,0,1-.31,1.65,1.21,1.21,0,0,1-1.2,1,1.69,1.69,0,0,1-1.47-.66,3.33,3.33,0,0,1-.41-1.17c-.31-1.37-.6-2.74-.89-4.12a12.57,12.57,0,0,0-5.64-8.08c-2-1.35-2-1.4-1.39-3.69a3.92,3.92,0,0,1,.32-.77c.06-.12.21-.19.31-.27,7.81,2,11.35,10.54,10.68,16.14Zm70.65-43.91h0c-1.22-.71-2.42-1.46-3.57-2.27a1.41,1.41,0,0,1-.54-1c.06-.82.77-.64,1.3-.58,1.53.14,3.07.32,4.51.48a3.46,3.46,0,0,1-.15,2.61c-.22.88-.87,1.21-1.55.8Zm-15.65-29.56h0a1,1,0,0,1,.79-.11c.19.11.25.47.37.71-.08,1.78-.74,2.93-2,3.26-.3.07-1-.28-1-.5a3.08,3.08,0,0,1,1.91-3.36Zm-84.15-1.05h0c.06.14.18.29.16.4q-1.25,6.63-2.51,13.24c-.33-.06-.68,0-.81-.17-1-1.12-2.6-2.14-2.95-3.46-.41-1.62,1.31-2.93,2.1-4.38s1.71-2.91,2.6-4.35c.34-.55.64-1.2,1.41-1.28Zm-3.12,20.57h0c-.42,4.18-.76,7.66-1.13,11.14-.09.82-.33,1.63-.47,2.32-1.13.71-1.74-.13-2.37-.54A28,28,0,0,1,939.8,531c-1.06-1.44-1-1.81,0-3.34.71-1.06,1.48-1,2.51-.51a7,7,0,0,0,7.19-.8c.44-.31.93-.56,1.93-1.16Zm-4.8-2.34h0a9,9,0,0,1-1.15.25c-1.72,0-2.22-.7-1.67-1.82.12-.25.26-.49.4-.72.85-1.32,1.89-1.39,3-.23.95,1,.71,2.13-.57,2.52ZM946,503.59h0c.12,0,.3,0,.47.12-.08-.31,0-.29.17.07l.07,0h0l-.07,0c-1.57,2.65-3.13,5.32-4.73,8a2.25,2.25,0,0,1-2,1.29c-.6,0-1.26-.16-1.1-.86a11.29,11.29,0,0,1,7.2-8.61Zm-8.53,28.46h0c1.34,1.56,2.47,3,3.72,4.34a17.46,17.46,0,0,0,6.49,4.62c2,.75,2,.92,1.75,2.75-.55,3.91-1.15,7.82-1.66,11.73a10.6,10.6,0,0,1-2,5.47,11.67,11.67,0,0,0-1.25,2.21c-1.33,2.61-1.49,3.27-4.89,2a71,71,0,0,1-10.3-4.92,16.52,16.52,0,0,1-4-3.1c-2.88-3.16-2.78-2.84-.7-6,3.7-5.67,7.36-11.37,11.06-17a4.62,4.62,0,0,1,1.78-2Zm-45,92.67h0c-.21-4.09-.32-8.19-.52-12.29-.14-2.95-.38-5.9-.57-8.8,1.11-.57,1.66.24,2.32.65A29.53,29.53,0,0,0,909.81,609a22.12,22.12,0,0,0,8.67-1.74c5.54-2.33,10.72-5.19,13.94-10.58.72-1.21,1.67-2.49,1.79-3.81.24-2.48,1.62-4,3.3-5.56a53.34,53.34,0,0,0,4.5-5.5c.11,6.42-1.17,12.48-2.45,18.56a4.15,4.15,0,0,1-3.25,3.38,123.63,123.63,0,0,0-30.06,14.58c-3.32,2.15-6.45,4.61-9.65,6.94a11,11,0,0,1-3.19,2.06c-1.11-.55-.86-1.66-.91-2.56Zm28.67-68.33h0a7.57,7.57,0,0,1,1.12.94,25.6,25.6,0,0,0,14.39,9.13c1.09.28,2.19.58,3.27.9,1.58.46,1.86,1,1.11,2.45A59.55,59.55,0,0,1,934,581.34a9.13,9.13,0,0,1-11.49,2,22.28,22.28,0,0,1-6.78-6.3,8.37,8.37,0,0,1-1.57-4.76,15,15,0,0,1,2.2-8.91c1.51-2.37,3.19-4.64,4.82-7Zm-8,104h0c-.59-.59-.31-1.32-.31-2,.08-6.18-2.17-11.6-5.42-16.68a20.4,20.4,0,0,0-9.73-7.89c-.76-.31-1.69-.28-2.25-1.18-.19-.9.73-1,1.23-1.34,6-3.43,12.06-6.79,18.06-10.25a3.44,3.44,0,0,1,3.58-.06A24.23,24.23,0,0,1,929,631.53a66.15,66.15,0,0,1,4.41,11.9c.58,1.94.31,3.44-1.6,4.7-5.54,3.67-11,7.52-16.44,11.27a3.61,3.61,0,0,1-2.26,1Zm148.91-68h0a1.72,1.72,0,0,1-1.87,1.36c-.22,0-.64-.26-.63-.36a1.7,1.7,0,0,1,.38-1.08,1.49,1.49,0,0,1,1.91-.25c.1.07.14.22.21.33Zm35.28-55.22h0c-1-1.66-.93-2,.44-3.26a48.2,48.2,0,0,1,8.23-6,64.91,64.91,0,0,1,13.86-6.31c2.26-.71,2.76-.52,3.57,1.56,2.84,7.24,5.62,14.49,8.41,21.74.25.65.46,1.32.71,2-.27.37-.44.81-.76,1a28.43,28.43,0,0,1-2.65,1.32,128.94,128.94,0,0,1-17.61,6.07,26.89,26.89,0,0,0-3.24,1c-1.13.5-1.64-.13-1.93-.93a106.43,106.43,0,0,0-9-18.21ZM1111,558.07h0c7.29-1.75,14.53-3.61,21-7.7,1-.61,1.57-.37,2,.65,2.3,5.92,4.61,11.84,6.87,17.77.63,1.65.39,2.24-1,3.25a14.55,14.55,0,0,1-1.79,1.13,91.33,91.33,0,0,1-13.57,5.94,34.43,34.43,0,0,1-4.94,1.16c-1.89.33-2.2.19-3-1.47a197.5,197.5,0,0,1-8.64-19.8c1.31-.38,2.24-.7,3.19-.93Zm8.18,26.5h0c-.28-.71-.35-1.52.55-1.69a46,46,0,0,0,7.76-2.06c2.62-1.05,5.24-2.1,7.78-3.32s4.68-2.52,7-3.78c1.17,1.19,1.33,2.81,1.87,4.25,1.74,4.61,3.35,9.28,5,13.92a2.07,2.07,0,0,1-.63,2.63,51.94,51.94,0,0,1-17.94,9.28,14.59,14.59,0,0,1-2.08.36,1.73,1.73,0,0,1-2-1.1c-.66-1.71-1.3-3.43-2-5.13-1.78-4.46-3.57-8.9-5.36-13.36Zm8.81,22.18h0c7.39-1,13.37-4.12,19.06-7.89.83-.54,1.58-1.2,2.43-1.71.48-.29,1.15-.4,1.4.32.6,1.73,1.22,3.46,1.66,5.24a7,7,0,0,1-.18,3.76,15.73,15.73,0,0,1-15.56,10.83c-2.94-.2-5.11-1.32-6.14-4.3-.69-2-1.64-3.87-2.67-6.25ZM989.9,624.39h0a135.9,135.9,0,0,1,1.57,19c.1,3.1.55,6.19.82,9.29q.68,7.39,1.32,14.8c.12,1.41.3,2.81.32,4.23.16,9.64,1.41,19.18,2.31,28.76a38.81,38.81,0,0,1,.32,6.6,3.84,3.84,0,0,1-2.73-.47c-11.26-4.24-22.66-8-34.51-10.27-1.5-.28-1.81-.71-1.88-2.33-.38-9.48-1.51-18.89-2.36-28.33-.69-7.75-1.18-15.53-2.06-23.26-1.07-9.27-2.44-18.51-3.69-27.76-.17-1.26-.38-2.52-.53-3.78a1.92,1.92,0,0,1,.6-1.93c1.9-1.46,1.81-3.35.67-5.87a132.35,132.35,0,0,1,19.78,6.36c3.17,1.22,6.29,2.55,9.44,3.82,4,1.63,6.44,1.85,6.13.85-.74-2.4-3-3.18-5-4.11-5-2.35-10.21-4.15-15.39-6-1.32-.49-3-.28-3.78-1.93,1.59-.67,3.06.1,4.49.49,6,1.64,12,3.43,18,5.09,4.5,1.26,9,2.38,13.53,3.61,1.92.53,2,.59,2,2.63,0,3.82.12,7.65,0,11.47-.15,4.55.58,9,.93,13.54.7,8.89,1.56,17.76,2.45,26.63,1,10.42,2.2,20.82,3.35,31.22a18.27,18.27,0,0,0,1,5c.87,2.09,0,3.12-1.61,4.14-1.31.83-2.43,1.94-3.7,2.83-.55.4-1.09.08-1.24-.58A14.75,14.75,0,0,1,1000,706c-.83-8.6-1.74-17.18-2.42-25.78-.41-5.36-.41-10.74-1.05-16.09-.77-6.47-1.39-12.94-2.07-19.42q-.71-6.75-1.38-13.5a55.89,55.89,0,0,0-1.91-8.69.74.74,0,0,0-1-.5.89.89,0,0,0-.35.68A7.34,7.34,0,0,0,989.9,624.39Z"/><path class="cls-21" d="M911.17,496.64a2.53,2.53,0,0,1,0-5.05h20.45a2.53,2.53,0,1,1,0,5.05Z"/><path class="cls-21" d="M901.09,491.59a2.53,2.53,0,0,1,0,5.05h-5.2a2.53,2.53,0,1,1,0-5.05Z"/><path class="cls-21" d="M992.92,312.75a2.53,2.53,0,0,1,0-5.05h49.61a2.53,2.53,0,0,1,0,5.05Z"/><path class="cls-21" d="M982.84,307.7a2.53,2.53,0,0,1,0,5.05h-5.2a2.53,2.53,0,1,1,0-5.05Z"/><path class="cls-21" d="M859.94,505.08a9.06,9.06,0,1,1-6.4,15.46l-.14-.16a9,9,0,0,1,.14-12.64l.16-.15a9,9,0,0,1,6.24-2.51Zm2.83,6.22a4,4,0,0,0-5.56-.1l-.1.1a4,4,0,0,0-.1,5.57l.1.1a4,4,0,0,0,5.66,0h0a4,4,0,0,0,0-5.67Z"/><path class="cls-21" d="M955.5,315.69a9,9,0,0,1,6.39,2.65h0a9,9,0,0,1,0,12.79l-.16.15a9,9,0,0,1-12.64-12.94h0a9,9,0,0,1,6.39-2.65Zm2.83,6.21a4,4,0,0,0-5.66,0h0a4,4,0,0,0,0,5.66h0a4,4,0,0,0,5.56.09l.1-.1a4,4,0,0,0,0-5.66Z"/><path class="cls-21" d="M1172,394.12a9.05,9.05,0,0,1,6.39,15.45l-.16.14a9,9,0,1,1-6.23-15.59Zm2.83,6.21a4,4,0,0,0-2.83-1.17,4,4,0,0,0-2.84,1.17h0a4,4,0,0,0,5.57,5.77l.1-.1a4,4,0,0,0,0-5.67Z"/><path class="cls-21" d="M892.4,407.9a2.52,2.52,0,0,1,5,0V429a2.52,2.52,0,1,1-5,0Z"/><path class="cls-21" d="M905.47,415.94a2.52,2.52,0,1,1,0,5h-21.1a2.52,2.52,0,1,1,0-5Z"/><path class="cls-21" d="M1116.63,305a2.52,2.52,0,0,1,5,0v21.11a2.52,2.52,0,0,1-5,0Z"/><path class="cls-21" d="M1129.7,313a2.53,2.53,0,1,1,0,5h-21.1a2.53,2.53,0,1,1,0-5Z"/><path class="cls-21" d="M1167.59,468.76a2.52,2.52,0,1,1,3.57,3.56l-14.93,14.92a2.52,2.52,0,1,1-3.56-3.56Z"/><path class="cls-21" d="M1171.16,483.68a2.52,2.52,0,1,1-3.57,3.57l-14.92-14.93a2.52,2.52,0,1,1,3.56-3.56Z"/><path class="cls-21" d="M813.16,560a2.53,2.53,0,0,1,5.05,0v21.11a2.53,2.53,0,0,1-5.05,0Z"/><path class="cls-21" d="M826.24,568a2.53,2.53,0,0,1,0,5.05H805.13a2.53,2.53,0,0,1,0-5.05Z"/><path class="cls-21" d="M1111.18,672.18a2.52,2.52,0,0,1,0,5h-20.46a2.52,2.52,0,0,1,0-5Z"/><path class="cls-21" d="M1121.26,677.22a2.52,2.52,0,0,1,0-5h5.2a2.52,2.52,0,1,1,0,5Z"/><path class="cls-21" d="M1166.36,558.55a9,9,0,0,1,6.4,15.44h0a9,9,0,0,1-12.78,0h0a9,9,0,0,1,0-12.79l.16-.15a9,9,0,0,1,6.24-2.5Zm2.83,6.2a4,4,0,0,0-5.56-.09l-.1.1a4,4,0,0,0-1.17,2.84,4,4,0,0,0,1.16,2.83h0a4,4,0,0,0,5.66,0h0a4,4,0,0,0,0-5.67Z"/><text class="cls-22" transform="translate(200.75 228.92)">Oops!</text><text class="cls-23" transform="translate(207.79 307.24)"><tspan class="cls-24">W</tspan><tspan x="34" y="0">e ca</tspan><tspan class="cls-25" x="105.92" y="0">n</tspan><tspan x="125.91" y="0">t seem </tspan><tspan class="cls-26" x="261.32" y="0">t</tspan><tspan x="273.67" y="0">o find the</tspan><tspan x="0" y="38.99">page youre looking for.</tspan></text><text class="cls-27" transform="translate(208.29 401.19)">er<tspan class="cls-28" x="23.2" y="0">r</tspan><tspan x="32.1" y="0">or code : 404</tspan></text></g></svg>